<svg width="20" height="20" viewBox="0 0 20 20" fill="none" xmlns="http://www.w3.org/2000/svg">
<path opacity="0.2" d="M16.875 10C16.875 11.3597 16.4718 12.689 15.7164 13.8195C14.9609 14.9501 13.8872 15.8313 12.631 16.3517C11.3747 16.872 9.99238 17.0082 8.65876 16.7429C7.32514 16.4776 6.10013 15.8228 5.13864 14.8614C4.17716 13.8999 3.52238 12.6749 3.2571 11.3412C2.99183 10.0076 3.12798 8.62529 3.64833 7.36905C4.16868 6.11281 5.04987 5.03908 6.18046 4.28365C7.31105 3.52821 8.64026 3.125 10 3.125C11.8234 3.125 13.5721 3.84933 14.8614 5.13864C16.1507 6.42795 16.875 8.17664 16.875 10Z" fill="url(#paint0_linear_3847_238)"/>
<path d="M19.1492 4.74061C18.5515 3.71014 16.9742 3.47811 14.5789 4.06405C13.4699 3.20658 12.1428 2.67731 10.7481 2.53637C9.35339 2.39542 7.94713 2.64845 6.68905 3.26671C5.43097 3.88496 4.3715 4.84367 3.63101 6.03391C2.89051 7.22414 2.49866 8.5982 2.49998 9.99999C2.50008 10.3215 2.52043 10.6427 2.56092 10.9617C0.39764 13.2031 0.42889 14.5312 0.851546 15.2594C1.24998 15.95 2.08123 16.25 3.17498 16.25C3.93438 16.2343 4.68929 16.1294 5.4242 15.9375C6.53327 16.7941 7.86031 17.3226 9.25464 17.463C10.649 17.6034 12.0547 17.3501 13.3123 16.7317C14.5699 16.1134 15.6289 15.1548 16.3691 13.9649C17.1094 12.775 17.5011 11.4014 17.5 9.99999C17.5001 9.68003 17.48 9.36038 17.4398 9.04296C18.4164 8.02733 19.0664 7.06249 19.2875 6.23671C19.4398 5.66483 19.3937 5.16171 19.1492 4.74061ZM9.99998 3.74999C11.4156 3.75144 12.7888 4.23275 13.8956 5.11532C15.0024 5.9979 15.7773 7.22961 16.0937 8.60936C14.7609 9.86405 12.957 11.1508 11.2445 12.1351C9.09217 13.3703 7.22498 14.1406 5.73592 14.5625C4.81879 13.7071 4.18043 12.5954 3.90394 11.3722C3.62745 10.1489 3.72564 8.87077 4.18573 7.7041C4.64582 6.53744 5.4465 5.53631 6.48352 4.83106C7.52055 4.12581 8.74587 3.7491 9.99998 3.74999ZM1.9328 14.632C1.81873 14.4359 1.88202 14.0664 2.10623 13.6164C2.32796 13.1948 2.59772 12.8002 2.91014 12.4406C3.21983 13.3379 3.69702 14.1682 4.31639 14.8875C2.96873 15.114 2.12811 14.9695 1.9328 14.632ZM9.99998 16.25C8.94618 16.2511 7.90945 15.9838 6.98748 15.4734C8.67974 14.8749 10.3126 14.1201 11.8648 13.2187C13.5508 12.2508 15.043 11.2015 16.2453 10.1656C16.2008 11.7931 15.5235 13.3391 14.3573 14.4752C13.1912 15.6113 11.6281 16.248 9.99998 16.25ZM18.0797 5.91327C17.9469 6.40624 17.5961 6.9703 17.093 7.56405C16.7841 6.66571 16.3068 5.83448 15.6867 5.11483C16.7969 4.93124 17.825 4.9453 18.0695 5.36796C18.1398 5.49061 18.1437 5.67421 18.0797 5.91327Z" fill="url(#paint1_linear_3847_238)"/>
<defs>
<linearGradient id="paint0_linear_3847_238" x1="1.62209" y1="3.125" x2="21.5669" y2="16.3241" gradientUnits="userSpaceOnUse">
<stop stop-color="#7BCDDF"/>
<stop offset="1" stop-color="#6D16B4"/>
</linearGradient>
<linearGradient id="paint1_linear_3847_238" x1="-1.42444" y1="2.49838" x2="21.798" y2="21.7059" gradientUnits="userSpaceOnUse">
<stop stop-color="#7BCDDF"/>
<stop offset="1" stop-color="#6D16B4"/>
</linearGradient>
</defs>
</svg>
