<svg width="113" height="40" viewBox="0 0 113 40" fill="none" xmlns="http://www.w3.org/2000/svg">
<path d="M18.7462 11.9736V12.0105C18.6355 11.3093 18.857 10.645 18.8939 10.0177C19.1522 9.68554 19.3736 9.16889 19.9641 8.72605C20.2224 8.2463 20.8128 7.98798 21.3295 7.69275C21.5509 7.61894 21.8461 7.58204 22.1783 7.58204C22.4735 7.58204 22.8056 7.61894 23.064 7.72965L24.983 7.69275L27.0126 7.72965L29.0054 7.50823C29.8173 7.50823 30.4078 7.58204 31.1089 7.72965C31.6625 8.09869 31.9577 8.39392 32.5113 8.57843C32.6589 9.16889 32.9172 9.57483 33.1017 10.0915C33.3601 10.5712 33.5077 11.42 33.5446 12.1581L33.5815 13.3759L31.8101 13.5973H30.2602L28.7471 13.6342L28.8209 11.3462C28.5995 10.5343 28.5626 9.87006 27.9721 9.31651C27.5662 8.72605 27.1234 8.79986 26.2746 8.72605C25.1675 8.65224 24.5401 8.87366 24.2449 9.42722C23.802 9.87006 23.3961 10.3867 23.3961 11.3831L23.6175 12.9331L23.5806 14.7782L23.433 16.5127L24.2449 16.8079L23.5437 17.4353L23.433 19.0591L23.3961 20.978L23.5068 22.6756L23.433 24.2994V26.0338L21.7723 25.96L20.3331 26.0338L18.6355 25.9969L18.82 24.3732L18.857 22.7125L18.5986 20.978L18.7831 19.6126L18.8939 17.952C18.4879 17.3246 18.0451 17.1401 17.676 16.8079C17.8975 16.6972 18.4141 16.5127 18.5986 16.771L18.857 15.2211L18.6355 13.5235L18.7462 11.9736Z" fill="#BA3F3B"/>
<path d="M40.4256 26.0338L40.278 26.1076V26.0338L36.5508 25.9231L34.4472 26.0707L35.6282 24.9267L35.702 23.2661L35.6651 21.4578L35.7389 19.5019L35.6282 17.7674C35.3698 17.3246 34.7794 17.2877 34.4103 16.9925C34.9639 16.8448 35.3698 16.6972 35.4805 16.6234L35.5913 14.9997L35.4805 13.4866L35.702 11.9736V10.1653L35.5544 8.57843L34.4841 7.43442L36.1448 7.61894L37.5102 7.47132L39.0602 7.69275L40.5732 7.47132L42.2339 7.43442L43.5993 7.61894L45.1862 7.65584H46.773L48.4706 7.58204L50.0206 7.72965L51.4598 7.58204L54.5966 7.50823C55.2978 7.58204 55.8513 7.69275 56.4787 7.95107C57.0692 8.02488 57.4382 8.39392 57.8441 8.61534C58.2132 8.98437 58.4346 9.57483 58.7298 10.1653C58.6929 10.6081 58.8036 11.2724 58.8036 11.8998L59.025 13.6711V15.2949L58.9512 16.5496C59.4679 16.771 59.5417 16.5865 59.9476 16.8817C59.5417 17.2139 59.1727 17.3246 58.9881 17.7674L58.9143 19.5388L58.9881 21.2364L58.8405 23.1554L59.062 24.8898L60.0953 26.1815L57.9548 25.9231L56.2573 26.1815L54.08 26.1076L54.1538 22.6387L54.0062 20.8304L54.2276 19.0222L54.0431 17.4353L53.3419 16.8448L54.0431 16.771L54.2645 14.9628L54.2276 13.0807L54.1169 11.1986C54.3014 10.4605 53.8954 9.64864 53.4526 9.2796C53.0467 8.94747 52.3824 8.72605 51.5336 8.61534L48.4706 8.68914C49.098 8.91057 49.1718 9.39031 49.3194 10.1284C49.5039 10.6081 49.5408 11.1986 49.8361 12.1212V15.0735L49.5408 16.8448L50.3527 16.9556L49.6884 17.3984L49.7253 19.1329V21.0519L49.5777 23.0077L49.6515 25.0374L50.9432 26.1076L48.7289 25.96H46.773L44.7434 25.9231L44.9648 24.447L44.7803 22.7125L45.0017 21.0519V19.465L44.891 17.6567C44.5588 17.5829 44.2267 17.0294 43.8946 16.9556C44.0791 16.7341 44.5219 16.771 45.0017 16.5496L44.8172 14.7782L45.0017 11.4938C44.8172 10.3498 44.7065 9.64864 44.1529 9.50102C43.8946 9.02128 42.972 8.83676 42.0863 8.72605L40.4256 8.68914L40.3149 10.2391L40.3518 12.0105L40.4625 13.5973L40.3518 15.1842L40.4256 16.6234L41.0899 17.0294L40.278 17.546L40.4994 19.1329L40.3887 20.8673L40.4994 22.528L40.4625 24.1887L40.278 26.0338H40.4256Z" fill="#BA3F3B"/>
<path d="M69.9201 24.7791L71.7653 25.0743L71.6915 24.9267L71.8022 22.897L71.8391 21.2364L71.5438 17.5829L70.8427 17.0663L71.7653 16.5865L71.5808 15.1842L71.7653 13.5973L71.8391 12.0474L71.7284 10.1653L71.8391 8.83676L69.8094 8.54153C68.8499 8.76295 68.2594 8.79986 67.9642 9.39031C67.2999 9.94387 67.2999 10.3129 67.3737 11.2355L67.2999 13.0069L67.0785 14.8151L67.1523 16.771H67.8166L67.2999 17.2877L67.3737 20.7566L67.263 22.3435C67.2261 23.0446 67.3368 23.8565 68.0011 24.2625C68.407 24.816 69.1082 24.9267 69.9201 24.7791ZM62.5394 21.4578L62.4287 21.6054L62.281 19.6864L62.3549 17.915C62.2072 17.546 61.5799 17.2139 61.2108 17.0663C61.6168 16.5865 61.912 16.8079 62.3918 16.5496L62.3549 15.2949L62.5763 13.708V11.9736C62.3918 11.42 62.4656 10.7188 62.6501 10.2022C62.9453 9.50102 63.0929 8.91057 63.5727 8.65224C63.8679 8.2832 64.3107 8.09869 64.9381 7.72965C65.344 7.65584 65.7131 7.54513 66.119 7.54513C66.3404 7.54513 66.5988 7.58204 66.894 7.65584L68.407 7.61894L69.9939 7.47132L71.3224 7.65584L73.0569 7.61894L74.6438 7.65584L75.9354 7.58204H77.5591L76.452 8.79986L76.3413 10.1653L76.5996 11.7152L76.4151 13.3759L76.5996 14.9259L76.4889 16.6234C76.7473 16.8079 77.3746 16.5865 77.5222 17.0294C77.3377 17.177 76.8949 17.546 76.5996 17.952L76.4889 19.6495L76.3782 23.0446L76.6365 24.9267L77.6329 25.9231L76.083 25.9969L74.4223 25.9231L73.0569 26.0707H71.5808L69.8094 26.1076L68.407 25.96L66.9309 26.1815C66.0821 26.1815 65.4548 25.8124 64.975 25.7017C64.2 25.5541 64.0155 25.2589 63.3882 25.0743C63.1298 24.6684 62.8715 24.1149 62.8715 23.4506C62.6501 22.897 62.5394 22.4173 62.5394 21.4578Z" fill="#BA3F3B"/>
<path d="M87.3544 24.9636L89.1258 25.0005L89.052 24.9267L89.0151 23.0077L89.1627 21.1626L89.1996 19.2067L88.9044 17.4353L88.4985 17.0663L89.0151 16.6234L89.1627 15.1473L88.9413 13.5235L89.0151 11.8998L89.1996 10.3129L89.0151 8.57843H87.2806C86.4319 8.61534 85.6938 8.94747 85.2879 9.2427C84.8819 9.83316 84.6974 10.4974 84.6605 11.42L84.5498 13.1545V14.9997L84.4391 16.5865L85.2879 16.9556L84.7343 17.5829L84.4391 19.096L84.5129 20.8304L84.7343 22.3066C84.6605 23.303 84.845 23.9672 85.3617 24.2994C85.8414 24.816 86.3212 24.9636 87.3544 24.9636ZM79.7523 21.5316L79.7892 21.6054L79.9368 19.7602L79.7892 17.8043C79.5678 17.3984 79.0142 17.1401 78.719 16.8817C79.2357 16.6972 79.2726 16.6234 79.7892 16.6972L79.8999 15.2211V13.4497L79.8261 12.1212C79.6785 11.3831 79.9368 10.5712 79.9368 9.98077C80.1952 9.50102 80.4535 9.02128 80.7487 8.65224C81.3023 8.32011 81.5975 8.09869 82.1141 7.76655C82.8522 7.76655 83.4796 7.61894 84.1069 7.50823L85.8045 7.72965L87.3914 7.50823L89.052 7.69275L89.0889 5.77376L89.0151 3.78096L88.9044 2.00959L89.1996 0.238216L91.1186 0.164409L93.0007 0.238216H94.9566L93.9602 1.34532L93.7019 2.71076L93.9233 4.33452V5.99518L93.8126 7.43442V9.05818L93.9602 10.4605L93.8126 11.9367L93.7388 13.4497L93.9602 15.0366L93.7019 16.5127C94.1078 16.6234 94.6614 16.8079 94.8459 17.0294C94.4399 17.0294 94.1078 17.4722 93.8495 17.952L93.9233 19.5019L93.8126 24.8898L94.9197 26.0338L93.4436 26.1815L92.0412 26.1446L90.4544 25.9969H88.9782L87.133 25.8862L85.8414 26.1446H84.1439C83.5903 26.0707 82.8891 25.9969 82.2249 25.8124C81.6344 25.5541 81.3392 25.2958 80.8963 24.9636C80.3797 24.5208 80.4166 24.0041 79.8999 23.5613C79.9368 23.0446 79.7154 22.4542 79.7523 21.5316Z" fill="#BA3F3B"/>
<path d="M24.2772 39.2745L25.3324 39.2965L25.2885 39.2525L25.2665 38.1094L25.3544 37.0102L25.3764 35.8451L25.2005 34.7898L24.9587 34.57L25.2665 34.3062L25.3544 33.4268L25.2225 32.4595L25.2665 31.4922L25.3764 30.5469L25.2665 29.5137H24.2332C23.7276 29.5357 23.2879 29.7335 23.0461 29.9094C22.8043 30.2612 22.6944 30.6569 22.6724 31.2065L22.6064 32.2397V33.3389L22.5405 34.2842L23.0461 34.504L22.7164 34.8778L22.5405 35.7791L22.5845 36.8123L22.7164 37.6917C22.6724 38.2853 22.7823 38.681 23.0901 38.8788C23.3759 39.1866 23.6617 39.2745 24.2772 39.2745ZM19.7485 37.23L19.7705 37.274L19.8585 36.1748L19.7705 35.0097C19.6386 34.7678 19.3089 34.614 19.133 34.4601C19.4408 34.3501 19.4628 34.3062 19.7705 34.3502L19.8365 33.4708V32.4156L19.7925 31.6242C19.7046 31.1845 19.8585 30.7008 19.8585 30.3491C20.0124 30.0633 20.1662 29.7775 20.3421 29.5577C20.6719 29.3598 20.8477 29.2279 21.1555 29.0301C21.5952 29.0301 21.9689 28.9421 22.3426 28.8762L23.3539 29.0081L24.2992 28.8762L25.2885 28.9861L25.3105 27.8429L25.2665 26.6558L25.2005 25.6006L25.3764 24.5454L26.5196 24.5014L27.6407 24.5454H28.8059L28.2123 25.2049L28.0584 26.0183L28.1903 26.9856V27.9748L28.1244 28.8322V29.7995L28.2123 30.6349L28.1244 31.5142L28.0804 32.4156L28.2123 33.3609L28.0584 34.2402C28.3003 34.3062 28.63 34.4161 28.7399 34.548C28.4981 34.548 28.3003 34.8118 28.1464 35.0976L28.1903 36.0209L28.1244 39.2306L28.7839 39.9121L27.9045 40L27.0692 39.978L26.1239 39.8901H25.2445L24.1453 39.8241L23.3759 39.978H22.3646C22.0349 39.934 21.6172 39.8901 21.2215 39.7802C20.8697 39.6263 20.6938 39.4724 20.43 39.2745C20.1223 39.0107 20.1443 38.7029 19.8365 38.4391C19.8585 38.1314 19.7266 37.7796 19.7485 37.23Z" fill="#E58614"/>
<path d="M32.8069 33.207L32.785 34.3062L32.741 34.3502L33.2686 34.504L32.741 34.8338L32.763 35.8451L32.6531 36.8123L32.675 37.7796C32.697 38.2853 32.8949 38.615 33.2246 38.8129C33.4005 39.0547 33.6863 39.2745 34.2799 39.2086C34.7195 39.2306 35.0933 39.1646 35.423 38.8129C35.7088 38.593 35.8627 38.2193 35.8407 37.7357L35.7967 36.6365L35.8627 35.7791L35.8847 34.6579L35.423 34.526L35.8627 34.4381L35.8407 33.2729L35.7748 32.2177L35.7308 31.1185C35.7967 30.5689 35.7748 30.2831 35.401 29.9534C35.2032 29.6676 34.8734 29.6016 34.2799 29.6456C33.7742 29.6016 33.4445 29.7116 33.0927 29.9534C32.8949 30.1293 32.8289 30.5909 32.763 31.1625L32.741 32.2837L32.8069 33.207ZM33.5984 39.956L32.5212 39.9121C32.0595 39.934 31.6638 39.934 31.378 39.7362C30.9823 39.7142 30.6965 39.4284 30.4547 39.2525C30.2348 39.0547 30.2348 38.659 30.059 38.5051C29.8831 38.1094 29.971 37.8016 29.9271 37.274L29.8171 36.1528V35.0097C29.5973 34.7898 29.4654 34.6579 29.1576 34.4381C29.3335 34.3721 29.4434 34.3282 29.5533 34.3282C29.6633 34.3282 29.7732 34.3501 29.949 34.4161L29.9051 33.4048L29.949 32.4376L29.7952 31.4922C29.971 31.1185 29.8831 30.6788 29.949 30.503C30.1249 29.9973 30.2348 29.8654 30.5646 29.6016C30.8284 29.4258 31.1362 29.118 31.356 29.0301C31.7078 29.0081 32.0595 28.9861 32.5871 28.9421L33.6423 28.9861L34.8295 28.8322L36.1045 29.0081C36.4563 28.9861 36.8959 29.074 37.1597 29.1839C37.5774 29.162 37.7753 29.3598 38.0391 29.4917C38.3029 29.7335 38.3689 30.1292 38.5667 30.3271C38.6107 30.6569 38.7206 31.2065 38.7206 31.6461L38.5887 32.5255L38.6766 33.4708L38.6546 34.3502C38.9844 34.2622 39.0943 34.4161 39.3361 34.4821C39.1603 34.6579 38.8085 34.7678 38.7426 35.0976L38.7206 36.0649L38.6327 37.296C38.6766 37.7576 38.5447 38.1534 38.5008 38.4172C38.4788 38.8129 38.3249 38.9668 38.0611 39.2745C37.7313 39.5163 37.4455 39.6043 37.1817 39.8021C36.9179 39.8681 36.4343 39.8901 36.0166 39.9121H34.9394L33.5984 39.956Z" fill="#E58614"/>
<path d="M43.129 34.7019L43.0851 34.6359C42.4256 34.614 41.9639 34.548 41.5902 34.3062C41.3264 34.2182 41.1945 33.9764 40.9307 33.8006C40.8427 33.6467 40.7108 33.2729 40.6449 32.9212C40.535 32.7453 40.491 32.4595 40.535 31.888C40.2711 31.6901 39.9854 31.5362 39.7215 31.5142C39.8535 31.3823 40.0073 31.3384 40.1392 31.3384C40.2272 31.3384 40.2931 31.3603 40.3591 31.3823C40.513 30.8327 40.491 30.503 40.5789 30.1732C40.8427 30.0193 40.9526 29.6236 41.2824 29.5357C41.4363 29.3158 41.7001 29.2279 42.0738 29.052C42.2277 28.9861 42.6674 28.9201 43.0631 28.9421L44.2942 28.9861L45.4813 28.9641L46.5585 28.8762C47.0202 28.9201 47.4599 29.0081 47.8556 29.0081C48.0534 29.2719 48.3612 29.4478 48.5151 29.6676C48.8448 29.8215 48.9328 30.1512 49.1087 30.3931C49.1746 30.7448 49.2845 31.2065 49.1966 31.4922L49.3285 32.3716L48.3392 32.4595L47.24 32.3716L46.4046 32.4376L46.3387 31.0526C46.3387 30.6788 46.2947 30.1952 46.0089 30.0193C45.6792 29.7555 45.3054 29.6456 44.7558 29.6236C44.4261 29.5357 43.9424 29.6676 43.5907 30.0413C43.4808 30.1952 43.217 30.5689 43.2829 31.1405L43.3709 32.4376C43.3709 32.9212 43.4368 33.229 43.6567 33.6247C43.9205 33.7566 44.3162 33.9325 44.8218 33.8885L46.6025 33.9984C47.0422 34.0424 47.3499 34.1083 47.7017 34.0424C48.1414 34.2622 48.2952 34.4161 48.4711 34.7019C48.691 34.7239 48.9987 35.0316 49.0867 35.3614C49.2625 35.6692 49.3065 35.977 49.3285 36.3727C49.3725 36.3507 49.7462 36.5046 49.8561 36.6145C49.6582 36.6804 49.3725 36.8563 49.1746 37.1641L49.1966 37.3619C49.1966 37.6257 49.1526 38.1753 48.9987 38.4172C48.9987 38.8349 48.8668 38.9887 48.5151 39.2525C48.4491 39.4944 48.0754 39.6043 47.7237 39.6702C47.4159 39.8241 47.1081 39.8461 46.5365 39.956L45.4593 39.934L44.2063 40L43.151 39.8681C42.7114 39.8461 42.2057 39.9121 42.0079 39.7582C41.5682 39.6043 41.3044 39.5164 41.0626 39.2525C40.8647 39.0767 40.6888 38.8349 40.6669 38.4611C40.491 38.0654 40.469 37.6697 40.3811 37.34L40.469 36.4606L41.4143 36.3287L42.3156 36.3946L43.239 36.3507L43.217 37.6257C43.3709 38.3072 43.4588 38.615 43.6567 38.7689C44.0304 39.0547 44.2942 39.3185 44.7558 39.3185C45.3494 39.3405 45.7451 39.0327 45.9869 38.8349C46.3167 38.5491 46.4486 38.3072 46.4486 37.6917V36.2408C46.3827 35.7351 46.2068 35.3614 45.921 35.0097C45.6792 34.7239 45.2395 34.7239 44.7998 34.6799L43.129 34.7019Z" fill="#E58614"/>
<path d="M58.4143 39.9121H58.4583C57.9747 39.8901 57.6449 39.8461 57.4031 39.8021C57.0294 39.6263 56.7875 39.4504 56.5677 39.2965C56.2819 39.0327 56.106 38.8129 55.9302 38.4391C55.7983 38.0654 55.7323 37.6697 55.8202 37.274L55.7323 36.1968L55.8862 35.0316C55.6224 34.8558 55.4905 34.614 55.2267 34.548C55.4465 34.3941 55.5564 34.2622 55.8862 34.3502V33.4928L55.7323 32.5035L55.8202 31.5582C55.8642 31.1405 55.8422 30.7008 56.0621 30.3491C56.128 29.9973 56.2819 29.8215 56.4138 29.5137C56.7436 29.3378 56.8755 29.1839 57.2052 29.0301C57.6009 28.9641 58.0846 28.9201 58.4803 28.9641L59.6015 28.8542L60.8326 29.0081L61.9757 28.8982C62.4594 28.8322 62.7452 28.9641 63.2068 29.0081C63.5586 29.14 63.6465 29.2939 64.0422 29.5357C64.1961 29.8215 64.372 30.0193 64.4159 30.459C64.4819 30.7888 64.6358 31.1625 64.6797 31.5802L64.5478 32.4376L63.6025 32.4815L62.6792 32.3716L61.6899 32.4376L61.7339 31.1845C61.668 30.503 61.624 30.1732 61.4261 29.9973C61.1843 29.7116 60.8985 29.6016 60.5688 29.6016C60.4369 29.6016 60.283 29.6236 60.1291 29.6676C59.7554 29.6456 59.4036 29.6896 59.1618 29.9754C58.7881 30.1292 58.6122 30.6569 58.7001 31.1185L58.7661 32.2617V33.3389L58.6342 34.3062L59.1838 34.4601L58.7441 34.8778L58.7001 35.7791L58.7661 36.8123L58.7441 37.6917C58.6782 38.2413 58.7661 38.659 58.9639 38.9228C59.2277 39.0987 59.7993 39.2965 60.173 39.1646C60.3269 39.2086 60.4808 39.2306 60.5907 39.2306C60.9645 39.2306 61.2063 39.0547 61.3162 38.8568C61.58 38.571 61.8438 38.2633 61.7339 37.7137L61.8218 36.3727L62.7452 36.3067H63.6245L64.5258 36.3946L64.5478 37.23C64.5698 37.6257 64.4819 38.0654 64.35 38.4172C64.4379 38.8129 64.1961 39.0107 63.9982 39.2745C63.6685 39.5603 63.5366 39.6263 63.1629 39.7142C62.8771 39.9121 62.3934 39.8681 61.9098 39.978L60.8765 40L59.6674 39.978L58.4143 39.9121Z" fill="#E58614"/>
<path d="M70.2468 39.2745L71.1481 39.1646L71.2361 39.2525L71.1921 38.1314L71.324 37.0542V35.911L71.1921 34.7898L70.7524 34.57L71.1921 34.2622L71.324 33.4488L71.28 32.4156V31.4703L71.1481 30.5909L71.2581 29.5357L70.1589 29.5137C69.6093 29.5357 69.3015 29.6676 69.0157 29.9094C68.7739 30.2172 68.62 30.5689 68.576 31.1185L68.4881 32.1298L68.576 33.185L68.598 34.4381L69.0377 34.548L68.642 34.8558L68.5321 35.8231L68.642 36.7464L68.62 37.5818C68.5101 38.2853 68.7299 38.5271 68.9717 38.9008C69.1476 39.0767 69.6752 39.3185 70.2468 39.2745ZM65.7841 37.252L65.7181 37.274L65.7621 36.1748L65.6522 35.0536C65.5423 34.7459 65.3004 34.614 65.1026 34.504C65.3444 34.3282 65.4104 34.2842 65.7401 34.3062L65.7621 33.4048L65.6742 32.5035L65.7401 31.4703C65.7841 31.1625 65.6962 30.7668 65.872 30.437C66.0699 30.1512 66.1578 29.8435 66.3996 29.6236C66.7294 29.0301 67.7406 28.8982 68.3562 28.8322L69.2575 28.8542L70.1369 29.0081L71.1921 28.8322L71.9176 28.9201L72.9948 28.9861L73.7862 28.8542L74.8414 29.0081L74.1819 29.4917L74.094 30.503L74.1599 32.5255V33.4488L74.1819 34.3062C74.2698 34.3941 74.4457 34.4381 74.7315 34.4381C74.5337 34.7239 74.2918 34.7459 74.116 34.9877L74.094 36.1089L74.05 37.1641V38.1534L74.006 39.2745L74.7095 39.8681L73.8961 39.956L72.9288 40L72.0055 39.8681H71.0602L70.2688 39.8901H68.3782C67.8725 39.8901 67.5648 39.8681 67.1691 39.8461C66.8833 39.7142 66.5975 39.4724 66.3337 39.2086C66.1578 38.9448 66.0479 38.7909 65.7841 38.4172C65.7841 38.0654 65.7401 37.7576 65.7841 37.252ZM68.4441 28.2386V28.2167L68.4661 26.9416C68.686 26.6778 68.9278 26.6118 69.1696 26.5019C69.3894 26.37 69.4774 26.5019 69.6752 26.4799C69.8731 26.5679 69.939 26.6338 70.1589 26.7877C70.2468 26.8097 70.3567 26.8976 70.6205 27.0075C70.7524 27.0295 70.9063 27.0515 71.0602 26.9636C71.346 26.9416 71.5219 26.7657 71.8077 26.4579L71.8516 27.689C71.5658 28.0188 71.324 28.0848 71.1262 28.2386C70.9503 28.2167 70.7305 28.2826 70.5326 28.2826C70.4447 28.2167 70.2688 28.0628 70.0929 28.0408C70.005 27.9089 69.8291 27.755 69.7192 27.799C69.5433 27.689 69.3015 27.711 69.1036 27.733C68.9498 27.777 68.7079 27.9089 68.4441 28.2386Z" fill="#E58614"/>
<path d="M78.6441 32.1298V33.1191L78.732 33.0971H80.7546L81.7658 33.0531L81.8757 32.1957L81.8538 31.0746C81.7658 30.6788 81.6339 30.1293 81.3701 29.8654C81.1723 29.6896 80.7326 29.6456 80.2489 29.5137C79.7653 29.4917 79.3036 29.6456 79.1937 29.9094C78.864 30.2612 78.776 30.6788 78.732 31.1405L78.6441 32.1298ZM79.6114 39.934L78.5122 39.8681V39.9121C78.1165 39.8241 77.6768 39.956 77.435 39.7802C77.1272 39.6702 76.7755 39.4064 76.5337 39.2525C76.3138 38.9668 76.2479 38.7469 75.9621 38.4611C76.0061 38.0874 75.8522 37.8016 75.9181 37.23L75.8082 36.1308L75.8741 35.0976C75.5884 34.8338 75.3685 34.548 75.1267 34.3941C75.4345 34.3282 75.6763 34.3721 75.8522 34.2842L75.9621 33.4928V32.5695L75.8741 31.6022C75.8961 31.2065 75.9401 30.7888 76.0061 30.3271C76.2259 30.1512 76.3358 29.8215 76.4457 29.6676C76.7315 29.3598 77.0173 29.2939 77.3471 29.096C77.7867 29.074 78.1605 28.9861 78.6001 28.8322L81.9857 28.8982C82.3814 28.8982 82.7771 29.052 83.1728 29.14C83.5465 29.2939 83.8543 29.3158 84.0302 29.4917C84.1401 29.7995 84.4478 30.0413 84.5578 30.3931C84.6017 30.7668 84.6017 31.1625 84.7117 31.5802L84.6897 32.5695L84.7117 33.6906L83.6125 33.8445L82.7111 33.7786L81.7219 33.7346L80.6447 33.7786L79.6334 33.6686L78.6881 33.7126L78.82 34.7019L78.6881 35.6692L78.82 36.8123L78.776 37.7576C78.754 38.2853 78.9079 38.681 79.1278 38.8349C79.3916 39.0327 79.8532 39.2306 80.3149 39.3405C80.8205 39.1646 81.1942 39.1866 81.3481 38.9008C81.6999 38.681 81.8098 38.2413 81.7438 37.6477L81.8977 36.4826L82.7331 36.3727L83.7004 36.4826L84.6017 36.3946V37.252C84.7336 37.6257 84.6457 38.1314 84.4918 38.4172C84.4698 38.681 84.184 38.9887 84.0521 39.2745C83.8103 39.4504 83.5685 39.6483 83.1068 39.7582C82.843 39.8681 82.3814 39.8681 82.0956 39.978L80.7985 39.8461L79.6114 39.934Z" fill="#E58614"/>
<path d="M88.4535 34.7019L88.4096 34.6359C87.7501 34.614 87.2884 34.548 86.9147 34.3062C86.6509 34.2182 86.519 33.9764 86.2552 33.8006C86.1672 33.6467 86.0353 33.2729 85.9694 32.9212C85.8595 32.7453 85.8155 32.4595 85.8595 31.888C85.5956 31.6901 85.3099 31.5362 85.0461 31.5142C85.178 31.3823 85.3318 31.3384 85.4637 31.3384C85.5517 31.3384 85.6176 31.3603 85.6836 31.3823C85.8375 30.8327 85.8155 30.503 85.9034 30.1732C86.1672 30.0193 86.2771 29.6236 86.6069 29.5357C86.7608 29.3158 87.0246 29.2279 87.3983 29.052C87.5522 28.9861 87.9919 28.9201 88.3876 28.9421L89.6187 28.9861L90.8058 28.9641L91.883 28.8762C92.3447 28.9201 92.7844 29.0081 93.1801 29.0081C93.3779 29.2719 93.6857 29.4478 93.8396 29.6676C94.1693 29.8215 94.2573 30.1512 94.4332 30.3931C94.4991 30.7448 94.609 31.2065 94.5211 31.4922L94.653 32.3716L93.6637 32.4595L92.5645 32.3716L91.7291 32.4376L91.6632 31.0526C91.6632 30.6788 91.6192 30.1952 91.3334 30.0193C91.0037 29.7555 90.6299 29.6456 90.0804 29.6236C89.7506 29.5357 89.2669 29.6676 88.9152 30.0413C88.8053 30.1952 88.5415 30.5689 88.6074 31.1405L88.6954 32.4376C88.6954 32.9212 88.7613 33.229 88.9812 33.6247C89.245 33.7566 89.6407 33.9325 90.1463 33.8885L91.927 33.9984C92.3667 34.0424 92.6744 34.1083 93.0262 34.0424C93.4659 34.2622 93.6198 34.4161 93.7956 34.7019C94.0155 34.7239 94.3232 35.0316 94.4112 35.3614C94.587 35.6692 94.631 35.977 94.653 36.3727C94.697 36.3507 95.0707 36.5046 95.1806 36.6145C94.9827 36.6804 94.697 36.8563 94.4991 37.1641L94.5211 37.3619C94.5211 37.6257 94.4771 38.1753 94.3232 38.4172C94.3232 38.8349 94.1913 38.9887 93.8396 39.2525C93.7736 39.4944 93.3999 39.6043 93.0482 39.6702C92.7404 39.8241 92.4326 39.8461 91.861 39.956L90.7838 39.934L89.5308 40L88.4755 39.8681C88.0359 39.8461 87.5302 39.9121 87.3324 39.7582C86.8927 39.6043 86.6289 39.5164 86.3871 39.2525C86.1892 39.0767 86.0133 38.8349 85.9914 38.4611C85.8155 38.0654 85.7935 37.6697 85.7056 37.34L85.7935 36.4606L86.7388 36.3287L87.6401 36.3946L88.5635 36.3507L88.5415 37.6257C88.6954 38.3072 88.7833 38.615 88.9812 38.7689C89.3549 39.0547 89.6187 39.3185 90.0804 39.3185C90.6739 39.3405 91.0696 39.0327 91.3114 38.8349C91.6412 38.5491 91.7731 38.3072 91.7731 37.6917V36.2408C91.7072 35.7351 91.5313 35.3614 91.2455 35.0097C91.0037 34.7239 90.564 34.7239 90.1243 34.6799L88.4535 34.7019Z" fill="#E58614"/>
<path d="M5.83077 13.0639L5.97838 10.2961L6.60575 9.48423C6.49503 9.29971 6.19981 9.189 5.97838 9.33662L5.79387 5.57245L5.75696 3.69036C5.79387 2.87848 5.86767 2.25112 6.42123 1.69757C6.93788 1.43924 7.45453 1.25472 8.37712 1.25472C9.15209 1.40234 9.55803 1.62376 10.1485 1.91899C10.5175 2.32493 10.7389 2.98919 10.4806 3.54275L10.6651 5.53554L10.6282 7.52834L10.6651 9.26281L10.0009 9.41042L10.5175 10.0378L10.702 12.9532L10.6282 14.3186L10.739 15.6102V17.1233L10.5544 20.3708L10.702 21.8469L10.6282 23.3231L10.702 24.7623L9.37352 25.9432L11.4032 26.0909H13.027L14.6507 26.1278L16.5328 25.9432L15.3519 24.7623L15.5364 23.2124L15.3888 21.8469L15.5364 20.1494L15.315 18.4887L15.5364 16.7542L15.315 15.2781L15.5733 11.9568L15.2781 10.4068C15.8686 10.1854 16.1269 9.92707 16.6066 9.55804C16.0162 9.37352 15.8686 9.44733 15.5364 9.29971L15.3888 7.60214L15.315 6.31052L15.4626 4.68676L15.4257 4.57605C15.5364 3.76417 15.2781 3.32133 15.2043 2.54635C14.9091 2.14041 14.6138 1.62376 14.4662 1.32853C14.0972 0.996398 13.3222 0.627362 13.0639 0.405941C12.3627 0.184518 11.8092 0.184518 10.8866 0L9.2259 0.0369053L5.49864 0.221423C4.72366 0.184518 4.20701 0.29523 3.35823 0.405941C3.063 0.701168 2.65706 0.885688 2.17731 1.36543C1.84518 1.47615 1.40234 1.95589 1.32853 2.54635C1.18092 3.24752 0.885687 3.69036 0.92259 4.42843L1.10711 6.01529L1.18092 7.56524L1.0333 9.189C0.848783 9.29971 0.369036 9.48423 0.0738072 9.66875C0.442843 9.81636 0.738072 10.1485 0.959494 10.4068L0.996398 11.9937V13.7281L0.92259 16.7911L0.996398 18.4887L0.92259 19.8541L1.10711 21.441L0.885687 23.1017L1.14401 26.5337C0.885687 26.9396 1.0333 27.8991 0.627361 28.5634C0.553554 29.08 0.184518 29.7812 0 30.2979C0.553554 30.3717 1.0702 30.261 1.58686 30.1133C2.17731 30.1872 2.80467 29.9657 3.28442 29.6336C3.65346 29.7074 3.94869 29.4491 4.35463 29.0431C4.50224 28.8217 4.94508 28.4158 5.01889 27.936C5.27722 27.6039 5.38793 27.0503 5.72006 26.5337C5.75696 25.9432 5.83077 25.2052 5.90458 24.5409L5.68316 21.5148L5.90458 20.1494L5.68316 18.8208L5.94148 14.2817L5.86767 12.9901L5.83077 13.0639Z" fill="#BA3F3B"/>
<path d="M106.289 13.0639L106.141 10.2961L105.514 9.48423C105.624 9.29971 105.92 9.189 106.141 9.33662L106.325 5.57245L106.362 3.69036C106.325 2.87848 106.252 2.25112 105.698 1.69757C105.181 1.43924 104.665 1.25472 103.742 1.25472C102.967 1.40234 102.561 1.62376 101.971 1.91899C101.602 2.32493 101.38 2.98919 101.639 3.54275L101.454 5.53554L101.491 7.52834L101.454 9.26281L102.118 9.41042L101.602 10.0378L101.417 12.9532L101.491 14.3186L101.38 15.6102V17.1233L101.565 20.3708L101.417 21.8469L101.491 23.3231L101.417 24.7623L102.746 25.9432L100.716 26.0909H99.0924L97.4686 26.1278L95.5865 25.9432L96.7674 24.7623L96.5829 23.2124L96.7305 21.8469L96.5829 20.1494L96.8043 18.4887L96.5829 16.7542L96.8043 15.2781L96.546 11.9568L96.8412 10.4068C96.2508 10.1854 95.9925 9.92707 95.5127 9.55804C96.1032 9.37352 96.2508 9.44733 96.5829 9.29971L96.7305 7.60214L96.8043 6.31052L96.6567 4.68676L96.6936 4.57605C96.5829 3.76417 96.8412 3.32133 96.9151 2.54635C97.2103 2.14041 97.5055 1.62376 97.6531 1.32853C98.0222 0.996398 98.7971 0.627362 99.0555 0.405941C99.7566 0.184518 100.31 0.184518 101.233 0L102.893 0.0369053L106.621 0.221423C107.396 0.184518 107.912 0.29523 108.761 0.405941C109.056 0.701168 109.462 0.885688 109.942 1.36543C110.274 1.47615 110.717 1.95589 110.791 2.54635C110.938 3.24752 111.234 3.69036 111.197 4.42843L111.012 6.01529L110.938 7.56524L111.086 9.189C111.271 9.29971 111.75 9.48423 112.046 9.66875C111.676 9.81636 111.381 10.1485 111.16 10.4068L111.123 11.9937V13.7281L111.197 16.7911L111.123 18.4887L111.197 19.8541L111.012 21.441L111.234 23.1017L110.975 26.5337C111.234 26.9396 111.086 27.8991 111.492 28.5634C111.566 29.08 111.935 29.7812 112.119 30.2979C111.566 30.3717 111.049 30.261 110.532 30.1133C109.942 30.1872 109.315 29.9657 108.835 29.6336C108.466 29.7074 108.171 29.4491 107.765 29.0431C107.617 28.8217 107.174 28.4158 107.1 27.936C106.842 27.6039 106.731 27.0503 106.399 26.5337C106.362 25.9432 106.289 25.2052 106.215 24.5409L106.436 21.5148L106.215 20.1494L106.436 18.8208L106.178 14.2817L106.252 12.9901L106.289 13.0639Z" fill="#BA3F3B"/>
<path d="M8.37658 16.5319C8.37658 16.2519 8.54637 15.9061 8.62035 15.3037C8.74145 14.9795 8.62167 14.739 9.14876 14.416C9.40414 14.1508 9.7341 13.9737 10.1546 13.9737L10.4986 13.876L10.1546 13.7783C9.67585 13.7783 9.337 13.346 9.07346 13.2707C8.76869 12.9109 8.68295 12.4424 8.62167 12.4424C8.54637 11.9906 8.37658 11.4915 8.37658 11.2202L8.27887 10.8761L8.18117 11.2202C8.01928 12.4048 7.79339 12.7059 7.41689 13.1577C7.2663 13.5342 6.79797 13.7783 6.40319 13.7783L6.05917 13.876L6.40319 13.9737C6.7734 13.9737 7.15335 14.099 7.2663 14.3625C7.3416 14.4378 7.83104 14.7767 7.9374 15.3037C8.11243 15.7724 8.24518 16.0944 8.18117 16.5319L8.27887 16.8759L8.37658 16.5319Z" fill="#BA3F3B"/>
<path d="M104.006 16.532C104.006 16.252 104.175 15.9062 104.249 15.3038C104.37 14.9795 104.251 14.7391 104.778 14.4161C105.033 14.1509 105.363 13.9738 105.784 13.9738L106.128 13.8761L105.784 13.7784C105.305 13.7784 104.966 13.3461 104.702 13.2708C104.398 12.911 104.312 12.4425 104.251 12.4425C104.175 11.9907 104.006 11.4915 104.006 11.2202L103.908 10.8762L103.81 11.2202C103.648 12.4048 103.422 12.706 103.046 13.1578C102.895 13.5343 102.427 13.7784 102.032 13.7784L101.688 13.8761L102.032 13.9738C102.402 13.9738 102.782 14.099 102.895 14.3626C102.971 14.4379 103.46 14.7767 103.566 15.3038C103.741 15.7725 103.874 16.0944 103.81 16.532L103.908 16.876L104.006 16.532Z" fill="#BA3F3B"/>
<path d="M70.0957 33.5589C70.0957 33.2499 70.281 32.4031 70.899 32.4031L71.0544 32.359L70.899 32.3148C70.281 32.3148 70.0957 31.468 70.0957 31.159L70.0515 31.0036L70.0074 31.159C70.0074 31.468 69.8221 32.3148 69.2041 32.3148L69.0486 32.359L69.2041 32.4031C69.8221 32.4031 70.0074 33.2499 70.0074 33.5589L70.0515 33.7144L70.0957 33.5589Z" fill="#E58614"/>
<path d="M34.4042 38.0015C34.4042 37.6925 34.5895 36.8457 35.2075 36.8457L35.363 36.8016L35.2075 36.7574C34.5895 36.7574 34.4042 35.9106 34.4042 35.6016L34.3601 35.4462L34.3159 35.6016C34.3159 35.9106 34.1306 36.7574 33.5126 36.7574L33.3572 36.8016L33.5126 36.8457C34.1306 36.8457 34.3159 37.6925 34.3159 38.0015L34.3601 38.157L34.4042 38.0015Z" fill="#E58614"/>
</svg>
