<svg width="156" height="40" viewBox="0 0 156 40" fill="none" xmlns="http://www.w3.org/2000/svg">
<path fill-rule="evenodd" clip-rule="evenodd" d="M12.1146 26.2872C14.3741 28.0036 17.969 36.8619 8.06163 39.1482L2.02938 39.6792C2.00046 39.6817 1.97214 39.6889 1.94551 39.7005L1.3921 39.9408C1.2208 40.0151 1.02783 39.8993 1.01599 39.7129C0.910105 38.047 0.498475 31.2756 0.500496 26.7211C0.501556 24.3312 0.703676 21.3242 0.874593 18.7815C0.938249 17.8345 0.997576 16.9518 1.04058 16.1895C1.10984 14.9615 1.07401 14.0456 1.05268 13.675C1.04637 13.5653 1.10453 13.4617 1.20235 13.4119L1.51766 13.2511C1.55896 13.2301 1.60499 13.22 1.65131 13.2219L8.33167 13.4943C13.3581 13.7568 17.7366 20.7597 12.073 25.7435C11.916 25.8817 11.948 26.1606 12.1146 26.2872ZM5.2262 23.6187V18.2179C5.2262 17.9196 5.46779 17.6709 5.76607 17.6705C5.89914 17.6703 6.06952 17.672 6.30636 17.6778C11.8422 17.8128 11.9772 23.8887 6.30636 24.1588H5.76628C5.468 24.1588 5.2262 23.917 5.2262 23.6187ZM5.2262 34.5554V29.1545C5.2262 28.8563 5.46779 28.6076 5.76607 28.6072C5.89914 28.607 6.06952 28.6087 6.30636 28.6145C11.8422 28.7495 11.9772 34.8254 6.30636 35.0954H5.76628C5.468 35.0954 5.2262 34.8536 5.2262 34.5554Z" fill="#0C032B"/>
<path d="M14.7745 35.4274C14.7737 35.4045 14.749 35.3904 14.7289 35.4014L14.69 35.4225C14.68 35.4279 14.6718 35.4362 14.6665 35.4463L14.3896 35.9669C14.3662 36.0109 14.3392 36.0527 14.3093 36.0925C14.0562 36.4299 13.7387 36.8977 13.357 37.4958C13.3468 37.5117 13.3586 37.5325 13.3774 37.5318C13.381 37.5317 13.3846 37.5307 13.3877 37.529L13.3954 37.5249C13.4347 37.5035 13.5088 37.5231 13.5505 37.5392C13.5735 37.548 13.6021 37.5562 13.6365 37.5636C13.6617 37.5691 13.688 37.5648 13.7109 37.5528C13.7774 37.5182 13.8392 37.487 13.8965 37.4594C14.1593 37.3328 14.4168 37.1198 14.506 36.8421C14.6971 36.2467 14.7866 35.7751 14.7745 35.4274Z" fill="#0C032B"/>
<path d="M40.4743 17.2268C38.45 16.5279 35.6216 16.27 34.2766 18.6237C33.1263 20.6368 32.6071 25.808 32.515 26.8187C32.5045 26.9341 32.5195 27.0462 32.5598 27.1548C32.7991 27.7996 33.7006 30.1635 34.2766 30.7755C36.2109 32.8307 37.3875 32.6128 40.4232 31.2847C40.9613 31.0493 41.5677 31.4391 41.5677 32.0265V33.8292C41.5677 34.1128 41.4206 34.3778 41.1708 34.5119C39.072 35.6384 34.9669 36.8712 32.1163 34.6911C28.583 31.9889 28.7201 21.5134 30.5502 16.3538C30.5892 16.2437 30.6533 16.1463 30.7356 16.0633C31.2274 15.5667 31.3376 15.4255 31.469 15.3079C31.5824 15.2064 31.7117 15.1227 32.1163 14.8431C33.847 13.6474 37.2826 11.9225 41.3897 14.202C41.5061 14.2666 41.6048 14.3631 41.6749 14.4763C41.7663 14.6239 41.8084 14.798 41.794 14.9711L41.6663 16.4983C41.6189 17.0662 41.0129 17.4127 40.4743 17.2268Z" fill="#0C032B"/>
<path d="M35.3832 31.1772C35.3914 31.1772 35.3997 31.1794 35.4069 31.1835C36.1235 31.589 36.6215 31.8132 36.9011 31.8562C36.9507 31.8639 36.9913 31.9046 36.9913 31.9548C36.9913 32.005 36.9505 32.0459 36.9004 32.0439C36.298 32.0198 35.7799 31.7553 35.3458 31.2502C35.339 31.2423 35.3352 31.232 35.3352 31.2215C35.3352 31.1971 35.355 31.1772 35.3795 31.1772H35.3832Z" fill="#0C032B"/>
<path fill-rule="evenodd" clip-rule="evenodd" d="M23.478 13.1704L19.8073 13.3285C19.4165 13.3453 19.0936 13.6388 19.0397 14.0262L16.9724 28.8817L16.8374 30.1L15.7784 37.2776C15.7 37.8089 16.1509 38.2681 16.6835 38.1994L19.5369 37.8312C19.6919 37.8112 19.8079 37.6792 19.8079 37.523L20.5324 31.9713C20.5822 31.5895 20.8939 31.2955 21.278 31.2681L23.6029 31.102C24.0443 31.0705 24.4293 31.399 24.4677 31.8399L24.8658 36.4181C24.9056 36.8757 25.3175 37.2088 25.7733 37.1518L28.4412 36.8183C28.8907 36.7621 29.2067 36.3483 29.1427 35.8999L28.0441 28.2098L25.779 13.4203C25.76 13.2961 25.6825 13.1886 25.5706 13.1313C25.5104 13.1005 25.4432 13.0858 25.3756 13.0887L23.8867 13.1528C23.7488 13.1528 23.478 13.1704 23.478 13.1704ZM22.4778 17.378C22.5712 17.4013 22.6521 17.4798 22.6639 17.5753L23.7516 26.3977C23.8093 26.8655 23.4569 27.2836 22.9861 27.3061L21.9816 27.3539C21.4805 27.3777 21.0783 26.9449 21.1389 26.4469L22.2382 17.408C22.2382 17.3181 22.358 17.348 22.4778 17.378Z" fill="#0C032B"/>
<path d="M20.7591 35.0385C20.8768 33.7343 20.935 32.8425 20.9338 32.3634C20.9338 32.3616 20.9335 32.3599 20.9331 32.3582C20.9277 32.3377 20.8989 32.3374 20.8933 32.3579C20.7064 33.0398 20.5884 33.8726 20.5394 34.8561L20.283 37.7938C20.2815 37.8104 20.2829 37.8271 20.2872 37.8433L20.2988 37.8877C20.3127 37.941 20.3834 37.974 20.3845 37.9189C20.3846 37.9149 20.3846 37.9107 20.3846 37.9064C20.3845 37.8911 20.3845 37.8746 20.3887 37.8608C20.5578 37.3026 20.6644 36.8383 20.7084 36.468C20.7383 36.2159 20.7386 35.9602 20.7388 35.7046C20.739 35.4817 20.7392 35.2589 20.7591 35.0385Z" fill="#0C032B"/>
<path d="M47.0823 14.063V20.278C47.0823 20.3773 47.1332 20.4581 47.2056 20.5048C47.1967 20.5226 47.1922 20.5426 47.1938 20.5628C47.2147 20.6359 47.2397 20.7078 47.264 20.7776C47.2869 20.8434 47.3091 20.9073 47.3266 20.9685C47.3288 21.0361 47.4007 21.408 47.4142 21.4553C47.4345 21.586 47.6012 21.5725 47.6171 21.4486C47.641 21.2161 47.5862 20.7541 47.4354 20.5353C47.4584 20.5277 47.481 20.5168 47.5027 20.5023L47.7411 20.3424C47.8407 20.2756 47.9242 20.1875 47.9857 20.0845L51.9068 13.5101C52.0069 13.3422 52.2099 13.266 52.3958 13.3265C52.4533 13.3452 52.5142 13.3512 52.5742 13.3442L54.7118 13.0927C54.7559 13.0875 54.8006 13.0894 54.8441 13.0983C55.1347 13.1578 55.272 13.4931 55.1065 13.7393L50.0554 21.2543C49.9656 21.3879 49.9177 21.5453 49.9177 21.7063V22.3725C49.9177 22.4806 49.9393 22.5876 49.9813 22.6872L54.2295 32.7643C54.4376 33.2579 54.1179 33.814 53.5867 33.8825L51.0911 34.2045C50.7197 34.2524 50.3638 34.0395 50.2304 33.6895L47.7397 27.1512C47.6329 26.871 47.2173 26.9475 47.2173 27.2474V33.844C47.2173 34.2513 46.9148 34.5953 46.5108 34.6474L44.2701 34.9366C43.6881 35.0117 43.2219 34.4624 43.3905 33.9003L43.4002 33.8679C43.4244 33.7872 43.4359 33.7033 43.4342 33.6191L43.0391 13.6013C43.0355 13.4162 43.2154 13.2829 43.3914 13.3401C43.4214 13.3499 43.4528 13.3543 43.4844 13.3532L46.2429 13.2534C46.7015 13.2368 47.0823 13.6041 47.0823 14.063Z" fill="#0C032B"/>
<path d="M47.6956 33.8069L47.7869 34.8755C47.7949 34.9693 47.7355 35.0558 47.6451 35.0821C47.6326 35.0857 47.6197 35.0885 47.6068 35.087L47.6046 35.0868L47.5985 35.0859C47.5456 35.0788 47.4918 35.0716 47.441 35.0878C47.2445 35.1505 47.0092 35.2072 46.7353 35.2579C46.6839 35.2674 46.6312 35.2641 46.5784 35.2608C46.5372 35.2582 46.4961 35.2556 46.4556 35.259C46.4397 35.2604 46.4191 35.2675 46.3935 35.2804C46.3668 35.2938 46.3359 35.2971 46.3081 35.2861C46.2887 35.2784 46.2673 35.2773 46.2471 35.2828C46.1404 35.3118 46.0493 35.3295 45.9737 35.3359C45.9541 35.3376 45.9369 35.3231 45.9352 35.3035C45.9335 35.2839 45.9162 35.2698 45.8978 35.2769C45.8849 35.2819 45.8703 35.2888 45.854 35.2979C45.8374 35.307 45.8185 35.3114 45.7998 35.3091L45.7019 35.2974C45.6741 35.2941 45.6525 35.2718 45.6502 35.244C45.6474 35.2116 45.6714 35.1831 45.7038 35.1803L45.8166 35.1707C45.8668 35.1664 45.9141 35.1737 45.9586 35.1927C45.9606 35.1936 45.9629 35.1939 45.965 35.1936C45.9706 35.1927 45.9847 35.1874 46.0005 35.1815C46.024 35.1726 46.0513 35.1623 46.0597 35.1633L46.1652 35.1759C46.1674 35.1762 46.1697 35.1762 46.172 35.176C46.2201 35.1716 46.2888 35.1578 46.3782 35.1346C46.4213 35.1235 46.4661 35.1216 46.5103 35.1269C46.5591 35.1328 46.6046 35.1352 46.6466 35.1342C46.6728 35.1335 46.6997 35.1084 46.7074 35.0834C46.7183 35.048 46.7439 35.0235 46.7804 35.0172L47.0788 34.9657C47.0956 34.9628 47.1109 34.9701 47.1266 34.9775C47.1371 34.9826 47.1478 34.9876 47.1591 34.9896C47.1623 34.9902 47.1668 34.9895 47.1699 34.9888L47.1936 34.983C47.2562 34.9677 47.3061 34.9203 47.3245 34.8585C47.3423 34.7987 47.3949 34.7559 47.4571 34.7506L47.496 34.7472C47.5141 34.7457 47.5297 34.7341 47.536 34.7171C47.5592 34.6541 47.6148 34.4968 47.6315 34.3848C47.6344 34.3649 47.6295 34.3449 47.619 34.3277C47.603 34.3017 47.601 34.2696 47.6112 34.2409C47.6556 34.1155 47.6719 33.9719 47.66 33.81C47.6593 33.8001 47.6665 33.7915 47.6763 33.7907C47.6861 33.7899 47.6948 33.7971 47.6956 33.8069Z" fill="#0C032B"/>
<path d="M51.8487 19.4374C51.7716 19.5095 51.8702 19.638 51.9667 19.5722C51.9827 19.5559 52.0004 19.5427 52.0181 19.5296C52.0358 19.5164 52.0535 19.5033 52.0695 19.4869C52.1789 19.4145 52.0609 19.2797 51.9515 19.3521C51.9483 19.3618 51.9242 19.3783 51.9001 19.3947C51.8759 19.4112 51.8518 19.4276 51.8487 19.4374Z" fill="#0C032B"/>
<path d="M50.1801 22.2475C50.1173 22.4425 50.3322 22.544 50.434 22.3615C50.4667 22.2982 50.5419 22.0479 50.6098 21.8221C50.6606 21.6531 50.7074 21.4977 50.729 21.4448C50.7984 21.2626 50.8936 21.0672 51.0542 20.936C51.0822 20.9115 51.1108 20.8882 51.1391 20.8652C51.2017 20.8145 51.2626 20.765 51.311 20.7065C51.4308 20.5523 51.4944 20.3728 51.5548 20.2026L51.5549 20.2024C51.5686 20.1636 51.5822 20.1254 51.5962 20.088C51.6339 19.971 51.4904 19.8817 51.4332 19.9925C51.4027 20.0472 51.3784 20.104 51.3541 20.1607C51.3177 20.2459 51.2812 20.331 51.2237 20.4094C51.1662 20.4877 51.0955 20.5403 51.0052 20.5866C50.8122 20.7182 50.6393 20.9208 50.5313 21.1228C50.4225 21.338 50.3625 21.5769 50.3035 21.8119C50.266 21.961 50.2289 22.1086 50.1801 22.2475Z" fill="#0C032B"/>
<path d="M96.2725 27.4961C96.2589 27.405 96.3915 27.3572 96.4311 27.4351C96.4443 27.4611 96.4761 27.5495 96.4789 27.5677C96.4925 27.6588 96.3677 27.6961 96.3281 27.6182C96.3148 27.5922 96.2753 27.5143 96.2725 27.4961Z" fill="#0C032B"/>
<path d="M96.6596 28.0902C96.5913 28.0073 96.6974 27.9076 96.7812 27.9695C96.9042 28.0443 97.0249 28.1659 97.065 28.309C97.1291 28.5509 97.1336 28.8297 97.078 29.0802C97.0301 29.3203 96.6094 29.9329 96.4176 30.0827C96.3269 30.1615 96.1753 30.0817 96.245 29.9875C96.3484 29.8695 96.7121 29.312 96.7659 29.1735C96.8352 29.0141 96.8339 28.8187 96.8275 28.652C96.8262 28.4565 96.7675 28.2511 96.6596 28.0902Z" fill="#0C032B"/>
<path fill-rule="evenodd" clip-rule="evenodd" d="M87.8423 33.8427C87.8423 34.2751 88.1819 34.6313 88.6139 34.6519L93.5131 34.8852C103.775 34.8852 102.965 27.189 98.6439 24.4886C98.6178 24.4723 98.6248 24.4334 98.6548 24.4261C101.801 23.6574 104.896 14.2249 93.5131 13.957L88.4352 14.0907C88.4001 14.0916 88.3651 14.0877 88.3311 14.0792C88.0844 14.0176 87.8463 14.2066 87.8504 14.4609L87.9761 22.2906C87.9769 22.3395 87.9733 22.3885 87.9652 22.4368L87.8533 23.1082C87.846 23.1522 87.8423 23.1967 87.8423 23.2413V33.8427ZM92.9731 17.4676C92.5256 17.4676 92.1629 17.8303 92.1629 18.2777V21.7882C92.1629 22.2356 92.5256 22.5983 92.9731 22.5983H93.3781C98.9139 22.5983 98.2388 17.4676 93.3781 17.4676H92.9731ZM92.9731 26.1089C92.5256 26.1089 92.1629 26.4716 92.1629 26.919V30.4295C92.1629 30.8769 92.5256 31.2397 92.9731 31.2397H93.3781C98.9139 31.2397 98.2388 26.1089 93.3781 26.1089H92.9731Z" fill="#0C032B"/>
<path d="M101.088 15.6676C100.967 15.582 100.706 15.5201 100.306 15.482C100.284 15.4799 100.264 15.4976 100.264 15.5201C100.264 15.5413 100.282 15.559 100.301 15.5662C100.366 15.5894 100.47 15.6649 100.612 15.7926C101.128 16.3256 101.391 16.7751 101.401 17.1412C101.401 17.1539 101.412 17.1641 101.424 17.1641C101.435 17.1641 101.444 17.1573 101.446 17.1475C101.489 16.9966 101.512 16.89 101.515 16.8276C101.515 16.8201 101.513 16.8127 101.51 16.806L101.485 16.7563C101.481 16.7469 101.487 16.7359 101.498 16.7359C101.507 16.7359 101.513 16.7277 101.512 16.7189L101.478 16.5556C101.476 16.5465 101.473 16.5376 101.47 16.529L101.226 15.935C101.216 15.9108 101.207 15.8853 101.199 15.8597C101.175 15.7857 101.15 15.7112 101.088 15.6676Z" fill="#0C032B"/>
<path d="M107.721 28.251C107.722 28.1528 107.568 28.1374 107.553 28.2496C107.538 28.2916 107.523 28.5019 107.522 28.544C107.521 28.6423 107.662 28.6575 107.69 28.5735C107.705 28.5175 107.721 28.3071 107.721 28.251Z" fill="#0C032B"/>
<path d="M107.92 31.3262C107.92 31.2472 107.914 31.1681 107.907 31.0909C107.901 31.0173 107.895 30.9454 107.895 30.8769C107.896 30.7857 107.904 30.6945 107.912 30.6034C107.92 30.5122 107.927 30.4211 107.928 30.3298C107.921 30.2119 107.898 30.0938 107.876 29.9757C107.861 29.897 107.845 29.8183 107.835 29.7396C107.827 29.6575 107.821 29.5769 107.816 29.4973C107.804 29.3318 107.793 29.1706 107.757 29.0092C107.73 28.8967 107.561 28.9093 107.574 29.0217C107.574 29.0638 107.577 29.1024 107.58 29.141C107.584 29.1796 107.587 29.2182 107.586 29.2603C107.582 29.2911 107.576 29.3219 107.57 29.3531C107.556 29.4213 107.542 29.4917 107.542 29.5687C107.541 29.6951 107.557 29.8261 107.574 29.9591C107.587 30.0623 107.601 30.1667 107.606 30.271C107.613 30.2991 107.612 30.4044 107.611 30.5096C107.61 30.6149 107.609 30.7201 107.616 30.7482C107.614 30.9166 107.655 31.0854 107.696 31.2542C107.596 31.3937 107.904 31.5085 107.92 31.3262Z" fill="#0C032B"/>
<path fill-rule="evenodd" clip-rule="evenodd" d="M103.756 13.5337C103.316 13.5441 102.965 13.9037 102.965 14.3436V34.9234C102.965 35.3558 103.304 35.712 103.736 35.7326L108.636 35.9659C119.167 36.371 118.087 27.1896 113.766 24.4892C113.74 24.4728 113.747 24.4341 113.777 24.4267C116.937 23.6484 120.823 13.5514 108.636 13.4175L103.756 13.5337ZM108.096 17.1981C107.648 17.1981 107.285 17.5608 107.285 18.0082V21.5187C107.285 21.9661 107.648 22.3289 108.096 22.3289H108.501C114.036 22.3289 113.361 17.1981 108.501 17.1981H108.096ZM108.096 26.6495C107.648 26.6495 107.285 27.0122 107.285 27.4596V30.9702C107.285 31.4176 107.648 31.7803 108.096 31.7803H108.501C114.036 31.7803 113.361 26.6495 108.501 26.6495H108.096Z" fill="#0C032B"/>
<path d="M117.433 18.633C117.523 18.768 117.726 18.723 117.726 18.5655C117.729 18.4934 117.734 18.4202 117.739 18.3463C117.764 17.9587 117.791 17.552 117.658 17.193C117.568 16.9905 117.028 16.1354 116.893 15.9554C116.818 15.8504 116.723 15.7654 116.628 15.6804C116.581 15.6379 116.533 15.5954 116.488 15.5504C116.308 15.3479 116.016 15.6179 116.196 15.8204C116.343 16.0167 116.454 16.2368 116.565 16.4548C116.606 16.5366 116.648 16.6181 116.691 16.6979C116.741 16.7791 116.806 16.8556 116.872 16.9338C116.952 17.0291 117.034 17.1267 117.096 17.238C117.208 17.4855 117.276 17.778 117.276 18.048C117.28 18.0807 117.283 18.1148 117.287 18.1497C117.302 18.3067 117.319 18.4775 117.411 18.588L117.433 18.633Z" fill="#0C032B"/>
<path d="M117.051 20.4556C117.028 20.6131 117.231 20.6806 117.321 20.5456C117.388 20.4106 117.478 19.9606 117.433 19.8031C117.411 19.6681 117.231 19.6456 117.163 19.7806C117.152 19.8256 117.129 19.9718 117.107 20.118C117.084 20.2642 117.062 20.4106 117.051 20.4556Z" fill="#0C032B"/>
<path d="M117.028 21.1306C116.916 21.2431 116.758 21.1081 116.826 20.9731C116.826 20.9619 116.843 20.9394 116.859 20.9169C116.876 20.8944 116.893 20.8719 116.893 20.8606C117.006 20.7256 117.208 20.8606 117.118 21.0181C117.118 21.0406 117.051 21.1081 117.028 21.1306Z" fill="#0C032B"/>
<path d="M126.323 22.7301C126.323 22.669 126.299 22.6104 126.256 22.5671C126.212 22.5239 126.154 22.4996 126.093 22.4996H124.668C124.601 22.4996 124.535 22.5077 124.471 22.5238L123.597 22.7422C123.527 22.7599 123.452 22.7517 123.387 22.7191C123.283 22.6673 123.218 22.5615 123.218 22.4458V17.3688C123.218 16.9214 123.58 16.5587 124.028 16.5587H125.513C125.96 16.5587 126.323 16.196 126.323 15.7486V13.3482C126.323 12.8893 125.942 12.522 125.484 12.5386L119.716 12.7484C119.265 12.7648 118.915 13.146 118.936 13.5965L119.167 18.449L118.897 25.3709L118.627 30.6008L118.862 35.4202C118.882 35.8292 119.204 36.159 119.612 36.1887L125.454 36.6136C125.924 36.6477 126.323 36.2762 126.323 35.8056V33.3689C126.323 32.9487 126.002 32.5982 125.583 32.5618L123.958 32.4205C123.539 32.3841 123.218 32.0336 123.218 31.6134V26.7687C123.218 26.6348 123.293 26.5124 123.413 26.4525C123.462 26.428 123.516 26.4152 123.571 26.4152H125.99C126.025 26.4152 126.053 26.3871 126.053 26.3525C126.053 26.2904 126.134 26.266 126.168 26.3176L126.188 26.3477C126.229 26.4084 126.323 26.3797 126.323 26.3068V22.7301Z" fill="#0C032B"/>
<path d="M123.487 22.3434C123.484 22.2826 123.482 22.2247 123.497 22.1585C123.541 22.0384 123.683 22.0426 123.74 22.1455C123.759 22.2067 123.753 22.4088 123.731 22.4689C123.725 22.6508 123.483 22.6234 123.489 22.4415C123.49 22.407 123.488 22.3748 123.487 22.3434Z" fill="#0C032B"/>
<path d="M123.441 19.9009C123.426 19.954 123.472 20.1963 123.484 20.2502C123.495 20.3442 123.456 20.7446 123.44 20.8378C123.437 20.9315 123.47 21.1867 123.508 21.2548C123.559 21.3366 123.681 21.3001 123.67 21.2061C123.666 21.1729 123.656 21.1418 123.647 21.1112C123.635 21.0673 123.622 21.0243 123.623 20.9771C123.631 20.9506 123.653 20.8676 123.676 20.7846C123.698 20.7017 123.721 20.6186 123.728 20.5921C123.759 20.4026 123.706 20.2106 123.659 20.0417L123.652 20.0142C123.72 19.9627 123.669 19.8943 123.604 19.8254C123.539 19.77 123.457 19.8211 123.441 19.9009Z" fill="#0C032B"/>
<path d="M124.013 17.1867C124.013 17.3792 123.82 17.5332 123.666 17.4562C123.435 17.3407 123.435 17.0327 123.628 16.8786C123.859 16.7246 124.09 16.9557 124.013 17.1867Z" fill="#0C032B"/>
<path d="M136.875 19.7517C136.825 19.8959 137.016 19.976 137.097 19.852C137.223 19.6915 137.324 19.4698 137.306 19.2595C137.271 18.9058 137.139 18.5326 136.941 18.2268C136.758 17.9311 135.894 17.3245 135.565 17.2202C135.405 17.1604 135.243 17.3417 135.382 17.4326C135.578 17.5383 136.339 18.0998 136.479 18.2574C136.65 18.4352 136.746 18.6959 136.82 18.9209C136.915 19.1816 136.939 19.4842 136.875 19.7517Z" fill="#0C032B"/>
<path d="M136.655 20.7343C136.682 20.8623 136.882 20.8602 136.896 20.7368C136.9 20.6957 136.899 20.5623 136.894 20.5367C136.867 20.4087 136.682 20.4209 136.668 20.5443C136.663 20.5855 136.649 20.7087 136.655 20.7343Z" fill="#0C032B"/>
<path fill-rule="evenodd" clip-rule="evenodd" d="M128.323 36.3218C128.331 36.7332 128.645 37.0735 129.055 37.1131L131.598 37.3592C132.087 37.4065 132.505 37.0115 132.485 36.5207L132.128 27.5165C132.121 27.3339 132.203 27.1593 132.349 27.0487C132.46 26.964 132.6 26.924 132.739 26.937C135.61 27.2065 137.923 27.6385 137.923 31.6427C137.923 36.8458 140.429 39.292 143.752 37.291C143.993 37.1455 144.124 36.8719 144.108 36.5903L144 34.6685C143.999 34.6574 144.002 34.6465 144.009 34.6378C144.039 34.5993 143.994 34.5436 143.948 34.5615C142.731 35.0438 142.211 33.9073 142.108 31.6427C142.108 28.9851 141.614 27.2174 140.033 25.7473C139.622 25.366 139.623 24.6847 140.033 24.3032C144.738 19.9261 141.658 12.225 133.872 12.6049L128.982 12.8434C128.604 12.8618 128.29 13.1389 128.224 13.5112L128.081 14.3168C128.072 14.367 128.091 14.4181 128.131 14.45L128.458 14.712C128.515 14.7571 128.466 14.8466 128.398 14.8238C128.364 14.8125 128.327 14.8308 128.316 14.8646L128.22 15.1518C128.208 15.1893 128.201 15.2285 128.201 15.268V29.7906L128.323 36.3218ZM132.455 22.2676C132.493 22.6846 132.843 23.0037 133.262 23.0037H134.278C139.408 22.8687 138.328 16.7928 134.278 16.7928H133.17C132.791 16.7928 132.463 17.0549 132.38 17.424L132.145 18.4588C132.126 18.5417 132.121 18.627 132.129 18.7117L132.455 22.2676Z" fill="#0C032B"/>
<path d="M142.488 21.2937C142.491 21.4759 142.725 21.499 142.801 21.3418C142.801 21.3158 142.82 21.2505 142.839 21.1851C142.857 21.1198 142.876 21.0545 142.876 21.0284C142.899 20.8459 142.638 20.745 142.562 20.9283C142.537 20.9806 142.487 21.2156 142.488 21.2937Z" fill="#0C032B"/>
<path d="M140.118 25.3071C140.248 25.3055 140.325 25.2264 140.298 25.0965C140.453 24.8303 140.716 24.6431 140.982 24.4547C141.239 24.272 141.498 24.0881 141.661 23.8296C141.715 23.7517 141.815 23.5333 141.922 23.2953C142.069 22.9712 142.233 22.6107 142.322 22.5195C142.476 22.3613 142.316 22.103 142.136 22.2354C141.9 22.4169 141.768 22.6992 141.635 22.9814C141.536 23.193 141.437 23.4047 141.294 23.5739C141.139 23.7535 140.947 23.9042 140.755 24.0542C140.469 24.2778 140.185 24.4999 140.034 24.8135C139.932 24.997 139.909 25.2837 140.118 25.3071Z" fill="#0C032B"/>
<path d="M149.975 18.2681C149.967 16.1204 152.188 16.2315 153.751 16.6754C154.115 16.779 154.509 16.5778 154.603 16.2107L154.637 16.0753C154.671 15.9423 154.632 15.8013 154.535 15.7046C154.462 15.6323 154.421 15.534 154.421 15.4313L154.412 13.2452C154.411 12.9962 154.298 12.7571 154.088 12.6233C150.939 10.6154 145.906 13.3231 145.925 18.2832C145.938 21.7723 147.637 24.3176 149.111 26.5248C150.26 28.2467 151.272 29.7627 151.239 31.3605C151.155 35.4694 147.945 34.7945 146.005 33.7825C145.814 33.6828 145.578 33.8184 145.579 34.034C145.579 34.0916 145.561 34.1478 145.528 34.1948L145.101 34.7964C144.977 34.9717 144.928 35.1892 144.964 35.401L145.183 36.6894L145.482 37.6432C145.553 37.8682 145.717 38.0532 145.937 38.1381C150.095 39.7429 155.122 38.309 155.56 31.3444C155.791 27.6714 153.806 24.8451 152.137 22.4686C151.044 20.9128 150.087 19.5498 149.975 18.2681Z" fill="#0C032B"/>
<path d="M151.316 17.1313C151.279 17.2191 151.346 17.33 151.466 17.339C151.502 17.3417 151.535 17.3168 151.569 17.291C151.592 17.2739 151.615 17.2565 151.639 17.2463C151.84 17.1859 152.367 17.2106 152.571 17.3165C152.788 17.4387 152.991 17.1518 152.792 16.9858C152.607 16.8359 152.367 16.8178 152.126 16.7996C151.916 16.7838 151.676 16.7657 151.5 16.8884C151.452 16.9301 151.336 17.0573 151.316 17.1313Z" fill="#0C032B"/>
<path d="M150.557 17.8876C150.477 18.2619 150.056 18.0631 150.267 17.7696C150.383 17.6297 150.616 17.7425 150.557 17.8876Z" fill="#0C032B"/>
<path d="M64.4868 25.6255C64.0069 23.9881 62.9875 22.6432 61.3993 21.0245C59.7607 19.3859 59.4507 18.5888 59.4507 17.7916C59.4507 16.9502 60.1593 16.2416 61.0451 16.2416C61.857 16.2416 62.5481 16.3439 63.0584 16.4548C63.5598 16.5637 64.1002 16.2561 64.194 15.7516L64.3073 15.1423C64.3279 15.0319 64.3252 14.9184 64.2996 14.8091L64.1118 14.0088C64.0497 13.7438 63.8593 13.5259 63.6018 13.4375C62.8622 13.1835 62.0151 12.9644 60.8236 12.9644C57.7678 12.9644 55.4207 15.223 55.4207 18.1459C55.4207 18.3669 55.4473 18.4174 55.4801 18.4798C55.507 18.5308 55.538 18.5896 55.5622 18.7555C55.7732 20.2033 56.3907 22.0352 57.9925 23.8862C58.0678 23.9733 58.1664 23.9968 58.2672 24.0209C58.3717 24.0459 58.4787 24.0714 58.565 24.1689C60.115 25.8961 60.5579 27.0475 60.5579 28.509C60.5579 29.749 59.5393 30.679 58.2993 30.679C57.0399 30.679 55.7252 30.2921 55.2284 30.1296C55.0988 30.0872 54.9564 30.109 54.8479 30.1916C54.7102 30.2963 54.6557 30.4778 54.7129 30.641L55.3379 32.4263C55.3907 32.577 55.3787 32.7429 55.3047 32.8844C55.1512 33.1779 55.2754 33.5421 55.589 33.6489C56.4503 33.9424 57.4639 34.0891 58.6536 34.0891C60.8077 34.0891 62.7569 33.0647 63.8609 31.3661C63.7117 30.0665 63.7651 28.6317 64.1332 27.0762C64.2481 26.5905 64.3663 26.1063 64.4868 25.6255Z" fill="#0C032B"/>
<path d="M59.531 25.9393L59.5423 25.9312C59.58 25.9046 59.5889 25.8526 59.5623 25.8149L58.6495 24.5237C58.6318 24.4987 58.6116 24.4756 58.5893 24.4547L58.4388 24.3141C58.3707 24.2505 58.2674 24.2435 58.1913 24.2972C58.1153 24.351 58.0874 24.4508 58.1247 24.5362L58.19 24.6859C58.2133 24.7394 58.2482 24.7871 58.292 24.8256C58.9394 25.3958 59.3201 25.7615 59.434 25.9226C59.4562 25.954 59.4996 25.9614 59.531 25.9393Z" fill="#0C032B"/>
<path d="M61.5905 16.5999C61.6913 16.5621 61.8298 16.7511 61.6661 16.7511C61.5653 16.7511 61.4519 16.6503 61.5905 16.5999Z" fill="#0C032B"/>
<path d="M59.8523 17.3431C59.8901 17.4564 60.0413 17.4816 60.0539 17.3556C60.0746 17.3365 60.0954 17.3169 60.1162 17.2973C60.2599 17.1618 60.4085 17.0218 60.5955 16.9778C60.638 16.9656 60.6805 16.9593 60.7216 16.9533C60.7657 16.9467 60.8082 16.9404 60.8474 16.9274C60.9229 16.9022 60.9985 16.8644 61.0741 16.8266C61.1623 16.7889 61.1371 16.6503 61.0363 16.6503C60.9944 16.6526 60.9517 16.6541 60.9086 16.6556C60.7183 16.6621 60.5205 16.6689 60.3561 16.7511C60.2204 16.8374 60.121 16.948 60.0104 17.0708L60.0035 17.0785C59.9531 17.1289 59.8397 17.2675 59.8523 17.3431Z" fill="#0C032B"/>
<path fill-rule="evenodd" clip-rule="evenodd" d="M76.4969 15.1224L74.6678 26.6844C74.6503 26.7186 74.6408 26.7541 74.6384 26.789L74.3296 27.888L73.0717 33.9936C73.0558 34.0706 73.0569 34.1501 73.075 34.2266L73.0844 34.2667C73.142 34.5105 73.3596 34.6828 73.6101 34.6828H76.9613C77.232 34.6828 77.4608 34.4824 77.4966 34.2141L78.0824 29.8209C78.1172 29.5596 78.3355 29.3617 78.5989 29.3525L81.4699 29.2527C81.5254 29.2508 81.5808 29.2588 81.6335 29.2765C81.8009 29.3327 81.9219 29.4793 81.9452 29.6544L82.5549 34.2272C82.5899 34.4898 82.8103 34.6882 83.0751 34.6957L86.2283 34.7842C86.2624 34.7851 86.2965 34.7828 86.3302 34.7774L86.3741 34.7702C86.6702 34.722 86.8703 34.4418 86.8197 34.1461L85.6115 27.0778L84.5953 21.0077L83.3745 14.2951C83.3706 14.2734 83.3686 14.2514 83.3686 14.2294C83.3686 14.0674 83.2624 13.9246 83.1074 13.878L83.0839 13.8709C83.0541 13.862 83.025 13.8566 82.9939 13.8549C82.6799 13.8382 80.7955 13.7478 79.3984 13.9111L79.2814 14.562C79.174 15.1593 78.596 15.5511 78.0014 15.4297L76.4969 15.1224ZM81.3516 25.3572C81.3881 25.6776 81.1375 25.9583 80.815 25.9583H79.2536C78.9246 25.9583 78.672 25.6667 78.719 25.3411L79.8644 17.4049C79.8681 17.3798 79.8779 17.356 79.8929 17.3356C79.9669 17.2356 80.1228 17.2603 80.1621 17.3783L80.1797 17.4312C80.195 17.4772 80.228 17.5151 80.2713 17.5368L80.3206 17.5614C80.4161 17.6092 80.481 17.702 80.493 17.8081L81.3516 25.3572Z" fill="#0C032B"/>
<path d="M74.8952 9.75359C74.8033 10.3273 75.1814 10.8709 75.7512 10.9844L77.3371 11.3003C77.677 11.368 78.0288 11.2685 78.283 11.0329L78.8579 10.5C79.1802 10.2013 79.6973 10.4841 79.6195 10.9166L79.0481 14.095C78.9407 14.6923 78.3627 15.0841 77.7681 14.9627L75.0766 14.4129C74.5185 14.2989 73.9678 14.6376 73.8177 15.187L73.5134 16.301L68.7239 36.4605C68.7053 36.5389 68.6955 36.6191 68.6947 36.6997L68.6668 39.5199C68.6668 39.5199 62.7782 34.7748 64.6001 27.076C65.9324 21.4461 67.695 16.0363 68.5462 13.5352C68.787 12.8275 68.2619 12.0878 67.5144 12.086L64.7212 12.079C64.0983 12.0774 63.6056 11.551 63.6453 10.9294L63.8408 7.86601C63.8694 7.41723 64.4604 7.27454 64.6906 7.66082L65.2287 8.56359C65.3935 8.84 65.6729 9.02862 65.9908 9.07812L68.1673 9.41697C68.6901 9.49836 69.1949 9.18932 69.3602 8.68672L70.3205 5.76671L71.8908 0.46083C71.9725 0.184695 72.2859 0.0517483 72.5412 0.184892L75.8353 1.90249C76.0099 1.99356 76.1067 2.18616 76.0756 2.38066L74.8952 9.75359Z" fill="#0C032B"/>
</svg>
