<svg width="59" height="32" viewBox="0 0 59 32" fill="none" xmlns="http://www.w3.org/2000/svg">
<path d="M43.1964 14.9631C41.701 14.9631 40.4844 13.7465 40.4844 12.2511C40.4844 10.7558 41.701 9.53915 43.1964 9.53915C44.6917 9.53915 45.9083 10.7558 45.9083 12.2511C45.9083 13.7465 44.6917 14.9631 43.1964 14.9631Z" fill="white"/>
<path d="M43.1981 10.3681C44.2363 10.3681 45.0779 11.2097 45.0779 12.2479C45.0779 13.2861 44.2363 14.1283 43.1981 14.1283C42.1599 14.1283 41.3184 13.2861 41.3184 12.2479C41.3184 11.2097 42.1599 10.3681 43.1981 10.3681Z" fill="#EB2C7E"/>
<path d="M39.4171 32.0032C37.9217 32.0032 36.7051 30.7866 36.7051 29.2912C36.7051 27.7964 37.9217 26.5798 39.4171 26.5798C40.9124 26.5798 42.129 27.7964 42.129 29.2912C42.129 30.7866 40.9124 32.0032 39.4171 32.0032Z" fill="white"/>
<path d="M39.4188 27.4094C40.457 27.4094 41.2986 28.251 41.2986 29.2892C41.2986 30.3274 40.457 31.1696 39.4188 31.1696C38.3807 31.1696 37.5391 30.3274 37.5391 29.2892C37.5391 28.251 38.3807 27.4094 39.4188 27.4094Z" fill="#EB2C7E"/>
<path d="M20.2304 30.0991C17.1763 30.0991 14.6914 27.6142 14.6914 24.5595C14.6914 21.5054 17.1763 19.0205 20.2304 19.0205C23.2851 19.0205 25.77 21.5054 25.77 24.5595C25.77 27.6142 23.2851 30.0991 20.2304 30.0991Z" fill="white"/>
<path d="M20.2328 19.849C22.8327 19.849 24.9402 21.9565 24.9402 24.5564C24.9402 27.1563 22.8327 29.2644 20.2328 29.2644C17.6329 29.2644 15.5254 27.1563 15.5254 24.5564C15.5254 21.9565 17.6329 19.849 20.2328 19.849Z" fill="#59A6C3"/>
<path d="M47.188 6.8466C46.1627 6.8466 45.3281 5.99269 45.3281 4.94334C45.3281 3.894 46.1627 3.04008 47.188 3.04008C48.2132 3.04008 49.0472 3.894 49.0472 4.94334C49.0472 5.99269 48.2132 6.8466 47.188 6.8466Z" fill="white"/>
<path d="M47.1858 3.87339C47.7534 3.87339 48.2135 4.35287 48.2135 4.94504C48.2135 5.53661 47.7534 6.0161 47.1858 6.0161C46.6183 6.0161 46.1582 5.53661 46.1582 4.94504C46.1582 4.35287 46.6183 3.87339 47.1858 3.87339Z" fill="#ECDA63"/>
<path d="M52.8561 28.244C49.8383 28.244 47.3828 25.7885 47.3828 22.7707C47.3828 19.753 49.8383 17.298 52.8561 17.298C55.8738 17.298 58.3294 19.753 58.3294 22.7707C58.3294 25.7885 55.8738 28.244 52.8561 28.244Z" fill="white"/>
<path d="M52.8559 18.1276C55.4194 18.1276 57.497 20.2058 57.497 22.7687C57.497 25.3322 55.4194 27.4104 52.8559 27.4104C50.2924 27.4104 48.2148 25.3322 48.2148 22.7687C48.2148 20.2058 50.2924 18.1276 52.8559 18.1276Z" fill="#ECDA63"/>
<path d="M9.20742 25.5196C8.95858 25.5196 8.71796 25.4462 8.51138 25.3072L0.55031 19.9442C0.274475 19.7594 0.0872596 19.4765 0.0232894 19.1496C-0.0400939 18.8233 0.0268107 18.4911 0.212853 18.2153L4.50707 11.8388C4.74007 11.4949 5.12624 11.2889 5.54116 11.2889C5.79 11.2889 6.03121 11.3628 6.23779 11.5019L14.1983 16.8643C14.4747 17.0503 14.6619 17.3326 14.7253 17.6601C14.7893 17.987 14.7218 18.3186 14.5351 18.595L10.2415 24.9697C10.0097 25.3136 9.62293 25.5196 9.20742 25.5196Z" fill="white"/>
<path d="M8.97788 24.6195L1.01682 19.2572C0.827255 19.1292 0.776783 18.8716 0.904724 18.682L5.19895 12.3061C5.32689 12.1166 5.58453 12.0661 5.77468 12.194L13.7352 17.5564C13.9253 17.6843 13.9758 17.942 13.8478 18.1321L9.55362 24.5074C9.42568 24.697 9.16803 24.7475 8.97788 24.6195Z" fill="#6CCB8D"/>
<path d="M48.3401 16.9374C48.7069 16.5524 49.292 16.7156 49.3929 17.2308L51.4899 27.8992C51.5914 28.4145 51.133 28.8957 50.6647 28.7649L48.3348 28.1158L47.8318 24.9812C47.7925 24.7365 47.5601 24.5698 47.3119 24.6085C47.0642 24.6473 46.8952 24.8773 46.9345 25.1221L47.3723 27.8476L40.9765 26.0652C40.5081 25.9343 40.3814 25.2905 40.7482 24.9055L48.3401 16.9374Z" fill="white"/>
<mask id="mask0_3450_27692" style="mask-type:luminance" maskUnits="userSpaceOnUse" x="39" y="15" width="14" height="15">
<mask id="mask1_3450_27692" style="mask-type:luminance" maskUnits="userSpaceOnUse" x="39" y="15" width="14" height="15">
<path d="M39.623 15.8207H52.4159V29.6916H39.623V15.8207Z" fill="white"/>
</mask>
<g mask="url(#mask1_3450_27692)">
<path d="M39.5566 15.7236H52.4951V29.8077H39.5566V15.7236Z" fill="black"/>
<mask id="mask2_3450_27692" style="mask-type:luminance" maskUnits="userSpaceOnUse" x="39" y="15" width="14" height="15">
<path d="M39.5508 15.7242H52.4892V29.8083H39.5508V15.7242Z" fill="white"/>
</mask>
<g mask="url(#mask2_3450_27692)">
<path d="M42.138 13.9328L55.695 17.1184L52.6156 30.2241L39.0586 27.0385L42.138 13.9328Z" fill="white"/>
<path d="M48.3303 16.9363C48.6971 16.5513 49.2822 16.7144 49.3832 17.2297L51.4807 27.8975C51.5816 28.4133 51.1233 28.894 50.655 28.7637L48.325 28.1146L47.8221 24.9801C47.7827 24.7353 47.5498 24.5681 47.3027 24.6074C47.055 24.6461 46.886 24.8756 46.9247 25.1203L47.3625 27.8458L40.9667 26.0635C40.4984 25.9332 40.3716 25.2888 40.7384 24.9044L48.3303 16.9363Z" fill="#050606"/>
</g>
</g>
</mask>
<g mask="url(#mask0_3450_27692)">
<mask id="mask3_3450_27692" style="mask-type:luminance" maskUnits="userSpaceOnUse" x="39" y="15" width="14" height="15">
<path d="M39.623 15.8207H52.4159V29.6916H39.623V15.8207Z" fill="white"/>
</mask>
<g mask="url(#mask3_3450_27692)">
<path d="M40.7477 24.9046L41.4067 25.5214L48.9981 17.5539L48.3396 16.9365L47.6805 16.3197L40.0886 24.2878L40.7477 24.9046ZM40.9754 26.0643L41.2324 25.1934C41.2976 25.2116 41.3533 25.2497 41.3915 25.2943C41.4261 25.3354 41.439 25.3729 41.4437 25.3958C41.4513 25.4369 41.4425 25.4839 41.4067 25.5214L40.7477 24.9046L40.0886 24.2878C39.686 24.7104 39.5569 25.272 39.6537 25.7638C39.7506 26.2574 40.1003 26.7627 40.7189 26.9352L40.9754 26.0643ZM47.3718 27.8467L47.6283 26.9757L41.2324 25.1934L40.9754 26.0643L40.7189 26.9352L47.1148 28.7176L47.3718 27.8467ZM46.934 25.1212L46.0337 25.2744L46.471 27.9998L47.3718 27.8467L48.2721 27.6935L47.8343 24.968L46.934 25.1212ZM47.3114 24.6077L47.1805 23.7144C46.4299 23.8318 45.9146 24.5325 46.0337 25.2744L46.934 25.1212L47.8343 24.968C47.8748 25.2198 47.6975 25.461 47.4422 25.5009L47.3114 24.6077ZM47.8313 24.9809L48.7316 24.8277C48.6142 24.0953 47.9217 23.5982 47.1805 23.7144L47.3114 24.6077L47.4422 25.5009C47.1963 25.5396 46.9698 25.3771 46.9305 25.1341L47.8313 24.9809ZM48.3343 28.1149L49.2346 27.9617L48.7316 24.8277L47.8313 24.9809L46.9305 25.1341L47.434 28.2686L48.3343 28.1149ZM50.6642 28.7645L50.9213 27.8936L48.5914 27.2439L48.3343 28.1149L48.0778 28.9864L50.4072 29.6355L50.6642 28.7645ZM51.4894 27.8983L50.5944 28.082C50.585 28.0321 50.6026 27.9869 50.6314 27.9564C50.6484 27.9394 50.6795 27.9142 50.7311 27.8971C50.7875 27.8789 50.8561 27.8748 50.9213 27.8936L50.6642 28.7645L50.4072 29.6355C51.0263 29.808 51.598 29.5592 51.9495 29.1906C52.2993 28.8232 52.4959 28.2804 52.3844 27.7146L51.4894 27.8983ZM49.3925 17.2299L48.4975 17.4142L50.5944 28.082L51.4894 27.8983L52.3844 27.7146L50.2874 17.0463L49.3925 17.2299ZM48.3396 16.9365L48.9981 17.5539C48.9529 17.6009 48.8408 17.6537 48.7087 17.6167C48.5767 17.5803 48.5104 17.4776 48.4975 17.4142L49.3925 17.2299L50.2874 17.0463C50.1736 16.4676 49.764 16.0257 49.2223 15.8748C48.6812 15.724 48.0925 15.8872 47.6805 16.3197L48.3396 16.9365ZM47.3718 27.8467L47.1148 28.7176L48.498 29.1032L48.2721 27.6935L47.3718 27.8467ZM48.3343 28.1149L47.434 28.2686L47.5244 28.832L48.0778 28.9864L48.3343 28.1149Z" fill="#835CB3"/>
</g>
</g>
<path d="M41.3753 16.7335C41.637 16.7382 41.8947 16.7605 42.1464 16.7987L42.0578 21.6205L39.1991 22.313C38.901 22.3852 38.7208 22.6851 38.7965 22.9821C38.8722 23.2796 39.175 23.4621 39.4732 23.39L42.0367 22.7685L41.9451 27.7869C41.6922 27.8156 41.4339 27.8286 41.1722 27.8233C38.0377 27.7663 35.5428 25.2369 35.5986 22.1745C35.6543 19.1122 38.2407 16.676 41.3753 16.7335Z" fill="white"/>
<mask id="mask4_3450_27692" style="mask-type:luminance" maskUnits="userSpaceOnUse" x="34" y="15" width="10" height="14">
<mask id="mask5_3450_27692" style="mask-type:luminance" maskUnits="userSpaceOnUse" x="34" y="15" width="10" height="14">
<path d="M34.6992 15.8221H43.0781V28.73H34.6992V15.8221Z" fill="white"/>
</mask>
<g mask="url(#mask5_3450_27692)">
<path d="M34.6309 15.7594H43.0749V28.7371H34.6309V15.7594Z" fill="black"/>
<mask id="mask6_3450_27692" style="mask-type:luminance" maskUnits="userSpaceOnUse" x="34" y="15" width="10" height="14">
<path d="M34.625 15.762H43.0691V28.7391H34.625V15.762Z" fill="white"/>
</mask>
<g mask="url(#mask6_3450_27692)">
<path d="M35.2141 13.9976L45.778 16.4795L42.4838 30.5002L31.9199 28.0182L35.2141 13.9976Z" fill="white"/>
<path d="M41.3772 16.7348C41.639 16.7395 41.8966 16.7618 42.1478 16.8L42.0598 21.6218L39.2011 22.3143C38.9029 22.3865 38.7227 22.6864 38.7979 22.9834C38.8742 23.2809 39.177 23.4634 39.4751 23.3913L42.0386 22.7698L41.9471 27.7876C41.6941 27.8169 41.4365 27.8293 41.1742 27.8246C38.0396 27.7671 35.5448 25.2382 35.6005 22.1758C35.6563 19.1135 38.2427 16.6773 41.3772 16.7348Z" fill="#050606"/>
</g>
</g>
</mask>
<g mask="url(#mask4_3450_27692)">
<mask id="mask7_3450_27692" style="mask-type:luminance" maskUnits="userSpaceOnUse" x="34" y="15" width="10" height="14">
<path d="M34.6992 15.8221H43.0781V28.73H34.6992V15.8221Z" fill="white"/>
</mask>
<g mask="url(#mask7_3450_27692)">
<path d="M35.6082 22.1722L36.5161 22.1887C36.5625 19.6475 38.7152 17.5904 41.3685 17.6391L41.3849 16.7312L41.4013 15.8233C37.7856 15.757 34.766 18.5717 34.7003 22.1558L35.6082 22.1722ZM41.1818 27.821L41.1989 26.9131C38.5456 26.8644 36.4698 24.7299 36.5161 22.1887L35.6082 22.1722L34.7003 22.1558C34.6346 25.7393 37.5496 28.6632 41.1654 28.7289L41.1818 27.821ZM41.9548 27.784L41.8515 26.882C41.6379 26.9066 41.4201 26.9172 41.1989 26.9131L41.1818 27.821L41.1654 28.7289C41.4677 28.7348 41.7658 28.7201 42.0581 28.6866L41.9548 27.784ZM42.0463 22.7662L41.1384 22.7497L41.0469 27.7676L41.9548 27.784L42.8627 27.801L42.9548 22.7826L42.0463 22.7662ZM39.4828 23.3871L39.697 24.2697L42.2605 23.6488L42.0463 22.7662L41.8327 21.8835L39.2692 22.505L39.4828 23.3871ZM38.8061 22.9798L37.9258 23.204C38.1242 23.9834 38.9153 24.4593 39.697 24.2697L39.4828 23.3871L39.2692 22.505C39.4541 22.4598 39.6389 22.5707 39.6859 22.7556L38.8061 22.9798ZM39.2087 22.3107L38.9951 21.4281C38.2052 21.6194 37.7251 22.4164 37.9258 23.204L38.8061 22.9798L39.6859 22.7556C39.7352 22.9487 39.616 23.1465 39.4224 23.1934L39.2087 22.3107ZM42.0674 21.6182L41.8538 20.7355L38.9951 21.4281L39.2087 22.3107L39.423 23.1934L42.2817 22.5003L42.0674 21.6182ZM42.1561 16.7964L41.2476 16.7794L41.1595 21.6012L42.0674 21.6182L42.9754 21.6346L43.064 16.8128L42.1561 16.7964ZM41.3849 16.7312L41.3685 17.6391C41.5897 17.6433 41.8075 17.662 42.0199 17.6943L42.1561 16.7964L42.2916 15.8985C42.0011 15.8544 41.7036 15.8286 41.4013 15.8233L41.3849 16.7312ZM41.9548 27.784L42.0581 28.6866L42.848 28.5963L42.8627 27.801L41.9548 27.784ZM42.0463 22.7662L42.9548 22.7826L42.9759 21.6065L41.8327 21.8835L42.0463 22.7662ZM39.2087 22.3107L39.4224 23.1934H39.423L39.2087 22.3107ZM42.0674 21.6182L42.2817 22.5003L42.963 22.3354L42.9754 21.6346L42.0674 21.6182ZM42.1561 16.7964L43.064 16.8128L43.0786 16.0176L42.2916 15.8985L42.1561 16.7964Z" fill="#835CB3"/>
</g>
</g>
<path d="M34.8652 25.6345L30.3926 24.8651L31.7301 17.4052L34.3317 17.1822C34.5771 17.161 34.7578 16.9462 34.7355 16.7021C34.7132 16.458 34.4966 16.2772 34.2519 16.2983L31.8921 16.5008L32.351 13.9414L36.8236 14.7108L34.8652 25.6345Z" fill="white"/>
<mask id="mask8_3450_27692" style="mask-type:luminance" maskUnits="userSpaceOnUse" x="29" y="12" width="9" height="15">
<mask id="mask9_3450_27692" style="mask-type:luminance" maskUnits="userSpaceOnUse" x="29" y="12" width="9" height="15">
<path d="M29.3281 12.8967H37.8702V26.6856H29.3281V12.8967Z" fill="white"/>
</mask>
<g mask="url(#mask9_3450_27692)">
<path d="M29.3281 12.8967H37.8702V26.6856H29.3281V12.8967Z" fill="black"/>
<mask id="mask10_3450_27692" style="mask-type:luminance" maskUnits="userSpaceOnUse" x="29" y="12" width="9" height="15">
<path d="M29.3223 12.9001H37.8643V26.6889H29.3223V12.9001Z" fill="white"/>
</mask>
<g mask="url(#mask10_3450_27692)">
<path d="M31.6906 12.5255L38.5396 14.1347L35.496 27.089L28.6465 25.4797L31.6906 12.5255Z" fill="white"/>
<path d="M34.8535 25.6424L30.3809 24.873L31.7184 17.4131L34.32 17.1901C34.5653 17.169 34.7461 16.9542 34.7238 16.71C34.7015 16.4659 34.4849 16.2851 34.2402 16.3063L31.8803 16.5087L32.3393 13.9494L36.8119 14.7182L34.8535 25.6424Z" fill="#050606"/>
</g>
</g>
</mask>
<g mask="url(#mask8_3450_27692)">
<mask id="mask11_3450_27692" style="mask-type:luminance" maskUnits="userSpaceOnUse" x="29" y="12" width="9" height="15">
<path d="M29.3281 12.8967H37.8702V26.6856H29.3281V12.8967Z" fill="white"/>
</mask>
<g mask="url(#mask11_3450_27692)">
<path d="M36.8124 14.7146L35.9175 14.5608L33.959 25.4844L34.854 25.6382L35.749 25.7926L37.7074 14.8683L36.8124 14.7146ZM32.3398 13.9452L32.1796 14.8396L36.6522 15.6084L36.8124 14.7146L36.9727 13.8207L32.5 13.0513L32.3398 13.9452ZM31.8809 16.5046L32.7759 16.6583L33.2348 14.0995L32.3398 13.9452L31.4448 13.7914L30.9859 16.3508L31.8809 16.5046ZM34.2407 16.3021L34.1685 15.3989L31.8087 15.6008L31.8809 16.5046L31.9525 17.4084L34.3123 17.2059L34.2407 16.3021ZM34.7243 16.7064L35.6299 16.6184C35.563 15.8795 34.9104 15.3349 34.1685 15.3989L34.2407 16.3021L34.3123 17.2059C34.0606 17.2276 33.8416 17.0445 33.8188 16.7939L34.7243 16.7064ZM34.3205 17.1865L34.3927 18.0897C35.1422 18.0258 35.6974 17.3649 35.6299 16.6184L34.7243 16.7064L33.8188 16.7939C33.7953 16.5357 33.9895 16.305 34.2489 16.2827L34.3205 17.1865ZM31.7183 17.4095L31.7905 18.3133L34.3927 18.0897L34.3205 17.1865L34.2489 16.2827L31.6467 16.5057L31.7183 17.4095ZM30.3814 24.8694L31.2764 25.0232L32.6133 17.5633L31.7183 17.4095L30.8233 17.2558L29.4864 24.7156L30.3814 24.8694ZM34.854 25.6382L35.0142 24.7444L30.5416 23.9756L30.3814 24.8694L30.2206 25.7632L34.6938 26.5326L34.854 25.6382ZM36.8124 14.7146L37.7074 14.8683L37.8677 13.9745L36.9727 13.8207L36.8124 14.7146ZM32.3398 13.9452L32.5 13.0513L31.605 12.8976L31.4448 13.7914L32.3398 13.9452ZM31.8809 16.5046L30.9859 16.3508L30.7781 17.5093L31.9525 17.4084L31.8809 16.5046ZM31.7183 17.4095L31.6467 16.5057L30.9471 16.5656L30.8233 17.2558L31.7183 17.4095ZM30.3814 24.8694L29.4864 24.7156L29.3262 25.6095L30.2206 25.7632L30.3814 24.8694ZM34.854 25.6382L34.6938 26.5326L35.5888 26.6864L35.749 25.7926L34.854 25.6382Z" fill="#835CB3"/>
</g>
</g>
<path d="M26.2496 19.2672C26.009 19.3364 25.8729 19.5864 25.945 19.8259L27.0308 23.4282C27.103 23.6676 27.3565 23.8061 27.5971 23.7369C27.8377 23.6676 27.9745 23.4176 27.9017 23.1781L26.816 19.5759C26.7438 19.3364 26.4903 19.1979 26.2496 19.2672ZM23.7448 16.6097C26.752 15.7464 29.9077 17.429 30.7939 20.3681C31.6801 23.3067 29.9605 26.389 26.9533 27.2523C26.1452 27.4841 25.3259 27.5322 24.543 27.4213L21.625 17.7413C22.2213 17.2342 22.9367 16.8416 23.7448 16.6097Z" fill="white"/>
<mask id="mask12_3450_27692" style="mask-type:luminance" maskUnits="userSpaceOnUse" x="20" y="15" width="12" height="14">
<mask id="mask13_3450_27692" style="mask-type:luminance" maskUnits="userSpaceOnUse" x="20" y="15" width="12" height="14">
<path d="M20.5938 15.4847H31.9499V28.3891H20.5938V15.4847Z" fill="white"/>
</mask>
<g mask="url(#mask13_3450_27692)">
<path d="M20.5938 14.749H32.7135V28.4516H20.5938V14.749Z" fill="black"/>
<mask id="mask14_3450_27692" style="mask-type:luminance" maskUnits="userSpaceOnUse" x="20" y="14" width="13" height="15">
<path d="M20.5996 14.7531H32.7193V28.4551H20.5996V14.7531Z" fill="white"/>
</mask>
<g mask="url(#mask14_3450_27692)">
<path d="M21.4633 11.9634L36.1325 15.4102L32.468 31.0054L17.7988 27.5587L21.4633 11.9634Z" fill="white"/>
<path d="M26.2672 19.2749C26.0266 19.3442 25.8904 19.5942 25.9626 19.8336L27.0489 23.4359C27.1211 23.6754 27.3747 23.8139 27.6147 23.7446C27.8553 23.676 27.9921 23.4254 27.9199 23.1859L26.8336 19.5836C26.7614 19.3442 26.5078 19.2057 26.2672 19.2749ZM23.7624 16.6175C26.7696 15.7542 29.9253 17.4368 30.8114 20.3759C31.6976 23.3145 29.9781 26.3968 26.9709 27.2595C26.1627 27.4919 25.3435 27.54 24.5606 27.4291L21.6426 17.7485C22.2389 17.242 22.9543 16.8493 23.7624 16.6175Z" fill="#050606"/>
</g>
</g>
</mask>
<g mask="url(#mask12_3450_27692)">
<mask id="mask15_3450_27692" style="mask-type:luminance" maskUnits="userSpaceOnUse" x="20" y="15" width="12" height="14">
<path d="M20.5938 15.4847H31.9499V28.3891H20.5938V15.4847Z" fill="white"/>
</mask>
<g mask="url(#mask15_3450_27692)">
<path d="M26.8296 19.5828L27.7023 19.3322C27.4857 18.6121 26.7239 18.1972 26.0009 18.4044L26.2632 19.2741L26.5256 20.1433C26.2838 20.2125 26.0291 20.074 25.9569 19.8334L26.8296 19.5828ZM27.9153 23.1851L28.7886 22.9345L27.7023 19.3322L26.8296 19.5828L25.9569 19.8334L27.0426 23.4351L27.9153 23.1851ZM27.6107 23.7438L27.873 24.613C28.5955 24.4058 29.0051 23.654 28.7886 22.9345L27.9153 23.1851L27.0426 23.4351C26.9704 23.1951 27.1072 22.9439 27.3484 22.8741L27.6107 23.7438ZM27.0444 23.4351L26.1717 23.6857C26.3882 24.4052 27.15 24.8208 27.873 24.613L27.6107 23.7438L27.3484 22.8741C27.5902 22.8048 27.8449 22.9439 27.9171 23.1845L27.0444 23.4351ZM25.9586 19.8328L25.0854 20.0834L26.1717 23.6857L27.0444 23.4351L27.9171 23.1845L26.8313 19.5822L25.9586 19.8328ZM26.2632 19.2741L26.0009 18.4044C25.2784 18.6121 24.8688 19.3633 25.0854 20.0834L25.9586 19.8328L26.8313 19.5822C26.9035 19.8229 26.7668 20.074 26.5256 20.1433L26.2632 19.2741ZM21.638 17.7476L22.2355 18.4384C22.7361 18.0123 23.3376 17.6819 24.0208 17.4859L23.7584 16.6167L23.4961 15.747C22.5623 16.0152 21.7337 16.4694 21.0411 17.0575L21.638 17.7476ZM24.5566 27.4283L25.4299 27.1777L22.5113 17.497L21.638 17.7476L20.7653 17.9982L23.6839 27.6789L24.5566 27.4283ZM26.9669 27.2587L26.7046 26.3895C26.022 26.5855 25.333 26.6254 24.6757 26.5321L24.5566 27.4283L24.438 28.3239C25.3459 28.4524 26.2949 28.3966 27.2292 28.1284L26.9669 27.2587ZM30.8075 20.3751L29.9342 20.6251C30.6707 23.0683 29.2452 25.66 26.7046 26.3895L26.9669 27.2587L27.2292 28.1284C30.7024 27.1313 32.7154 23.559 31.6802 20.1245L30.8075 20.3751ZM23.7584 16.6167L24.0208 17.4859C26.5614 16.757 29.1976 18.1825 29.9342 20.6251L30.8075 20.3751L31.6802 20.1245C30.6449 16.6895 26.9698 14.7498 23.4961 15.747L23.7584 16.6167ZM21.638 17.7476L21.0411 17.0575L20.5957 17.436L20.7653 17.9982L21.638 17.7476ZM24.5566 27.4283L23.6839 27.6789L23.8535 28.2411L24.438 28.3239L24.5566 27.4283Z" fill="#835CB3"/>
</g>
</g>
<path d="M33.8949 4.3196C33.6003 4.24859 33.3033 4.42994 33.2323 4.72455L32.5099 7.71413C32.4388 8.00875 32.6202 8.30571 32.9148 8.37672C33.2094 8.44832 33.5064 8.26698 33.5774 7.97177L34.2999 4.98219C34.3709 4.68758 34.1895 4.39062 33.8949 4.3196ZM34.7107 1.03599C37.6592 1.74847 39.4721 4.71575 38.7596 7.66425C38.0477 10.6127 35.0798 12.4256 32.1313 11.7132C29.1834 11.0013 27.3705 8.0334 28.0824 5.08548C28.7949 2.13699 31.7622 0.324104 34.7107 1.03599Z" fill="white"/>
<mask id="mask16_3450_27692" style="mask-type:luminance" maskUnits="userSpaceOnUse" x="27" y="-1" width="13" height="14">
<mask id="mask17_3450_27692" style="mask-type:luminance" maskUnits="userSpaceOnUse" x="27" y="-1" width="13" height="14">
<path d="M27.0547 -0.00303078H39.7994V12.7417H27.0547V-0.00303078Z" fill="white"/>
</mask>
<g mask="url(#mask17_3450_27692)">
<path d="M26.4062 -0.648297H40.4439V13.3894H26.4062V-0.648297Z" fill="black"/>
<mask id="mask18_3450_27692" style="mask-type:luminance" maskUnits="userSpaceOnUse" x="26" y="-1" width="15" height="15">
<path d="M26.4062 -0.649701H40.4439V13.388H26.4062V-0.649701Z" fill="white"/>
</mask>
<g mask="url(#mask18_3450_27692)">
<path d="M25.7363 -1.31821H41.1132V14.0587H25.7363V-1.31821Z" fill="white"/>
<path d="M33.9008 4.31368C33.6061 4.24208 33.3092 4.42343 33.2382 4.71863L32.5157 7.70821C32.4447 8.00283 32.6261 8.29979 32.9207 8.3708C33.2159 8.4424 33.5122 8.26106 33.5833 7.96644L34.3057 4.97627C34.3767 4.68166 34.1954 4.38528 33.9008 4.31368ZM34.7165 1.03007C37.665 1.74255 39.4773 4.70983 38.7654 7.65833C38.0535 10.6068 35.0863 12.4197 32.1378 11.7072C29.1893 10.9953 27.3764 8.02806 28.0883 5.07956C28.8008 2.13107 31.768 0.318184 34.7165 1.03007Z" fill="#050606"/>
</g>
</g>
</mask>
<g mask="url(#mask16_3450_27692)">
<mask id="mask19_3450_27692" style="mask-type:luminance" maskUnits="userSpaceOnUse" x="27" y="-1" width="13" height="14">
<path d="M27.0547 -0.00303078H39.7994V12.7417H27.0547V-0.00303078Z" fill="white"/>
</mask>
<g mask="url(#mask19_3450_27692)">
<path d="M34.3076 4.97679L35.1616 5.18337C35.347 4.41632 34.8757 3.64515 34.1093 3.4597L33.9027 4.3142L33.6961 5.16812C33.5195 5.12527 33.4109 4.94745 33.4537 4.7708L34.3076 4.97679ZM33.5858 7.96637L34.4397 8.17296L35.1616 5.18337L34.3076 4.97679L33.4537 4.7708L32.7313 7.76038L33.5858 7.96637ZM32.9226 8.37132L32.7166 9.22524C33.4831 9.41069 34.2542 8.93942 34.4397 8.17296L33.5858 7.96637L32.7313 7.76038C32.7741 7.58314 32.9519 7.47457 33.1292 7.51741L32.9226 8.37132ZM32.5176 7.70873L31.6637 7.50215C31.4783 8.26862 31.9495 9.04037 32.7166 9.22524L32.9226 8.37132L33.1292 7.51741C33.3058 7.55966 33.4144 7.73808 33.3721 7.91473L32.5176 7.70873ZM33.2401 4.71915L32.3856 4.51257L31.6637 7.50215L32.5176 7.70873L33.3721 7.91473L34.094 4.92515L33.2401 4.71915ZM33.9027 4.3142L34.1093 3.4597C33.3422 3.27483 32.571 3.7461 32.3856 4.51257L33.2401 4.71915L34.094 4.92515C34.0512 5.10239 33.8733 5.21096 33.6961 5.16812L33.9027 4.3142ZM28.0902 5.0795L28.9447 5.28608C29.5427 2.80943 32.0352 1.28647 34.5119 1.88451L34.7185 1.03059L34.9244 0.176677C31.5047 -0.649653 28.062 1.45315 27.2363 4.8735L28.0902 5.0795ZM32.1397 11.7078L32.3457 10.8532C29.869 10.2552 28.3461 7.76272 28.9447 5.28608L28.0902 5.0795L27.2363 4.8735C26.41 8.29327 28.5128 11.7359 31.9331 12.5617L32.1397 11.7078ZM38.7674 7.65885L37.9134 7.45226C37.3148 9.92891 34.8223 11.4519 32.3457 10.8532L32.1397 11.7078L31.9331 12.5617C35.3535 13.388 38.7955 11.2852 39.6219 7.86484L38.7674 7.65885ZM34.7185 1.03059L34.5119 1.88451C36.9885 2.48313 38.5115 4.97562 37.9134 7.45226L38.7674 7.65885L39.6219 7.86484C40.4476 4.44508 38.3448 1.00242 34.9244 0.176677L34.7185 1.03059Z" fill="#835CB3"/>
</g>
</g>
<path d="M28.7085 4.50481C28.9561 4.50422 29.1997 4.52007 29.4385 4.55117L29.4655 9.32664L26.7271 10.0773C26.4343 10.1577 26.2623 10.4593 26.3421 10.7522C26.4225 11.0444 26.7248 11.2164 27.0171 11.1366L29.472 10.464L29.5002 15.4343C29.2507 15.4695 28.9954 15.4883 28.7366 15.4889C25.703 15.4965 23.2381 13.044 23.2305 10.0109C23.2229 6.97793 25.6754 4.51244 28.7085 4.50481Z" fill="white"/>
<mask id="mask20_3450_27692" style="mask-type:luminance" maskUnits="userSpaceOnUse" x="22" y="3" width="9" height="14">
<mask id="mask21_3450_27692" style="mask-type:luminance" maskUnits="userSpaceOnUse" x="22" y="3" width="9" height="14">
<path d="M22.3438 3.62805H30.3752V16.3699H22.3438V3.62805Z" fill="white"/>
</mask>
<g mask="url(#mask21_3450_27692)">
<path d="M22.3379 3.62799H30.3788V16.3792H22.3379V3.62799Z" fill="black"/>
<mask id="mask22_3450_27692" style="mask-type:luminance" maskUnits="userSpaceOnUse" x="22" y="3" width="9" height="14">
<path d="M22.3438 3.6285H30.3846V16.3797H22.3438V3.6285Z" fill="white"/>
</mask>
<g mask="url(#mask22_3450_27692)">
<path d="M22.3164 3.61901H30.4289V16.45H22.3164V3.61901Z" fill="white"/>
<path d="M28.7065 4.50739C28.9536 4.5068 29.1971 4.52264 29.4366 4.55375L29.4636 9.32921L26.7252 10.0798C26.4323 10.1597 26.2604 10.4619 26.3402 10.7548C26.4206 11.047 26.7228 11.2196 27.0151 11.1392L29.47 10.466L29.4982 15.4369C29.2488 15.4721 28.9935 15.4909 28.7341 15.4915C25.7011 15.4991 23.2362 13.0465 23.2285 10.0135C23.2203 6.97992 25.6735 4.51501 28.7065 4.50739Z" fill="#050606"/>
</g>
</g>
</mask>
<g mask="url(#mask20_3450_27692)">
<mask id="mask23_3450_27692" style="mask-type:luminance" maskUnits="userSpaceOnUse" x="22" y="3" width="9" height="14">
<path d="M22.3438 3.62805H30.3752V16.3699H22.3438V3.62805Z" fill="white"/>
</mask>
<g mask="url(#mask23_3450_27692)">
<path d="M23.2204 10.0087L24.0989 10.0064C24.0925 7.4587 26.153 5.38759 28.7007 5.38114L28.6983 4.50257L28.696 3.62401C25.1776 3.63281 22.3324 6.49269 22.3418 10.0111L23.2204 10.0087ZM28.7265 15.4867L28.7242 14.6081C26.1765 14.6146 24.1054 12.554 24.0989 10.0064L23.2204 10.0087L22.3418 10.0111C22.3506 13.5294 25.2105 16.3746 28.7289 16.3652L28.7265 15.4867ZM29.4901 15.4321L29.3668 14.5617C29.1573 14.5917 28.9425 14.6075 28.7242 14.6081L28.7265 15.4867L28.7289 16.3652C29.0288 16.3646 29.324 16.3429 29.6139 16.3019L29.4901 15.4321ZM29.4619 10.4618L28.5833 10.4665L28.6115 15.4368L29.4901 15.4321L30.3692 15.4268L30.341 10.4565L29.4619 10.4618ZM27.007 11.1343L27.2394 11.9818L29.6943 11.3092L29.4619 10.4618L29.2301 9.61432L26.7751 10.2869L27.007 11.1343ZM26.3326 10.7499L25.4852 10.9823C25.6935 11.7424 26.4788 12.1901 27.2394 11.9818L27.007 11.1343L26.7751 10.2869C26.9506 10.2388 27.132 10.3421 27.1801 10.5175L26.3326 10.7499ZM26.717 10.075L26.4846 9.22757C25.724 9.43591 25.2762 10.2217 25.4852 10.9823L26.3326 10.7499L27.1801 10.5175C27.2282 10.693 27.1249 10.8744 26.9494 10.9225L26.717 10.075ZM29.4554 9.3244L29.2236 8.47694L26.4846 9.22757L26.717 10.075L26.9494 10.9225L29.6878 10.1719L29.4554 9.3244ZM29.4284 4.54894L28.5499 4.55422L28.5769 9.32968L29.4554 9.3244L30.3346 9.31971L30.307 4.54424L29.4284 4.54894ZM28.6983 4.50257L28.7007 5.38114C28.909 5.38055 29.1144 5.39405 29.3152 5.42046L29.4284 4.54894L29.5417 3.67742C29.2653 3.64162 28.983 3.62342 28.696 3.62401L28.6983 4.50257ZM29.4901 15.4321L29.6139 16.3019L30.3733 16.1945L30.3692 15.4268L29.4901 15.4321ZM29.4619 10.4618L30.341 10.4565L30.3346 9.31149L29.2301 9.61432L29.4619 10.4618ZM29.4554 9.3244L29.6878 10.1719L30.3381 9.99403L30.3346 9.31971L29.4554 9.3244ZM29.4284 4.54894L30.307 4.54424L30.3029 3.7766L29.5417 3.67742L29.4284 4.54894Z" fill="#835CB3"/>
</g>
</g>
<path d="M21.8862 4.95537L17.447 7.32168C17.2328 7.43554 17.1518 7.70198 17.2657 7.91561C17.3801 8.12982 17.646 8.2114 17.8602 8.09696L22.0916 5.84157L22.523 7.70198L19.4589 9.33528C19.2446 9.44972 19.1637 9.71558 19.2775 9.92979C19.392 10.144 19.6578 10.225 19.872 10.1111L22.729 8.58818L23.8077 13.2404L16.3179 14.9776L13.8359 4.27752L21.3263 2.54035L21.8862 4.95537Z" fill="white"/>
<mask id="mask24_3450_27692" style="mask-type:luminance" maskUnits="userSpaceOnUse" x="12" y="1" width="13" height="16">
<mask id="mask25_3450_27692" style="mask-type:luminance" maskUnits="userSpaceOnUse" x="12" y="1" width="13" height="16">
<path d="M12.7695 1.48821H24.8505V16.0341H12.7695V1.48821Z" fill="white"/>
</mask>
<g mask="url(#mask25_3450_27692)">
<path d="M12.7695 1.48762H24.8499V16.0341H12.7695V1.48762Z" fill="black"/>
<mask id="mask26_3450_27692" style="mask-type:luminance" maskUnits="userSpaceOnUse" x="12" y="1" width="13" height="16">
<path d="M12.7637 1.4887H24.8447V16.0346H12.7637V1.4887Z" fill="white"/>
</mask>
<g mask="url(#mask26_3450_27692)">
<path d="M12.7637 1.48811H24.8441V16.0346H12.7637V1.48811Z" fill="white"/>
<path d="M21.8706 4.95659L17.4314 7.3229C17.2172 7.43735 17.1362 7.7032 17.2501 7.91683C17.3645 8.13163 17.6304 8.21262 17.8446 8.09818L22.076 5.84279L22.5074 7.7032L19.4432 9.3365C19.229 9.45094 19.148 9.7168 19.2619 9.93101C19.3763 10.1452 19.6422 10.2262 19.8564 10.1124L22.7133 8.5894L23.792 13.2416L16.3022 14.9788L13.8203 4.27874L21.3101 2.54157L21.8706 4.95659Z" fill="#050606"/>
</g>
</g>
</mask>
<g mask="url(#mask24_3450_27692)">
<mask id="mask27_3450_27692" style="mask-type:luminance" maskUnits="userSpaceOnUse" x="12" y="1" width="13" height="16">
<path d="M12.7695 1.48821H24.8505V16.0341H12.7695V1.48821Z" fill="white"/>
</mask>
<g mask="url(#mask27_3450_27692)">
<path d="M21.312 2.54238L20.4557 2.74074L21.0162 5.15577L21.8719 4.9574L22.7282 4.75903L22.1683 2.34401L21.312 2.54238ZM13.8216 4.27955L14.0206 5.13581L21.5104 3.39864L21.312 2.54238L21.1136 1.68612L13.6233 3.42388L13.8216 4.27955ZM16.3035 14.9796L17.1598 14.7812L14.6779 4.08118L13.8216 4.27955L12.9659 4.47792L15.4479 15.178L16.3035 14.9796ZM23.7939 13.2424L23.595 12.3867L16.1052 14.1239L16.3035 14.9796L16.5025 15.8359L23.9923 14.0987L23.7939 13.2424ZM22.7147 8.5902L21.859 8.78916L22.9377 13.4408L23.7939 13.2424L24.6496 13.0441L23.5709 8.39184L22.7147 8.5902ZM19.8583 10.1132L20.2715 10.8884L23.1278 9.36606L22.7147 8.5902L22.3015 7.81493L19.4445 9.33731L19.8583 10.1132ZM19.2638 9.93182L18.4885 10.345C18.8307 10.9876 19.6288 11.2312 20.2715 10.8884L19.8583 10.1132L19.4445 9.33731C19.6588 9.22345 19.9252 9.30444 20.0391 9.51865L19.2638 9.93182ZM19.4445 9.33731L19.0314 8.56203C18.3893 8.90477 18.1458 9.70293 18.4879 10.345L19.2638 9.93182L20.0391 9.51865C20.1535 9.73286 20.0725 9.99872 19.8583 10.1132L19.4445 9.33731ZM22.5092 7.70401L22.0961 6.92874L19.0314 8.56203L19.4445 9.33731L19.8583 10.1132L22.9224 8.47987L22.5092 7.70401ZM22.0779 5.84359L21.2216 6.04196L21.653 7.90296L22.5092 7.70401L23.3649 7.50564L22.9336 5.64523L22.0779 5.84359ZM17.8465 8.09898L18.2596 8.87426L22.4911 6.61887L22.0779 5.84359L21.6641 5.06832L17.4327 7.32371L17.8465 8.09898ZM17.2519 7.91822L16.4767 8.33139C16.8188 8.97344 17.617 9.21699 18.2596 8.87426L17.8465 8.09898L17.4327 7.32371C17.6469 7.20927 17.9134 7.29085 18.0272 7.50447L17.2519 7.91822ZM17.4327 7.32371L17.0195 6.54785C16.3775 6.89059 16.1339 7.68875 16.4767 8.33139L17.2519 7.91822L18.0272 7.50447C18.1417 7.71868 18.0607 7.98513 17.8465 8.09898L17.4327 7.32371ZM21.8719 4.9574L21.4587 4.18213L17.0195 6.54844L17.4327 7.32371L17.8465 8.09898L22.2856 5.73267L21.8719 4.9574ZM21.312 2.54238L22.1683 2.34401L21.9693 1.48775L21.1136 1.68612L21.312 2.54238ZM13.8216 4.27955L13.6233 3.42388L12.7676 3.62224L12.9659 4.47792L13.8216 4.27955ZM16.3035 14.9796L15.4479 15.178L15.6462 16.0342L16.5025 15.8359L16.3035 14.9796ZM23.7939 13.2424L23.9923 14.0987L24.8486 13.8997L24.6496 13.0441L23.7939 13.2424ZM22.7147 8.5902L23.5709 8.39184L23.3121 7.27617L22.3015 7.81493L22.7147 8.5902ZM19.2638 9.93182L18.4879 10.345H18.4885L19.2638 9.93182ZM22.5092 7.70401L22.9224 8.47987L23.5175 8.16237L23.3649 7.50564L22.5092 7.70401ZM22.0779 5.84359L22.9336 5.64523L22.6747 4.52956L21.6641 5.06832L22.0779 5.84359ZM21.8719 4.9574L22.2856 5.73267L22.8807 5.41576L22.7282 4.75903L21.8719 4.9574Z" fill="#835CB3"/>
</g>
</g>
<path d="M11.747 9.1121C11.5275 9.21598 11.4341 9.47832 11.538 9.69723L13.1385 13.0718C13.2429 13.2907 13.5047 13.3846 13.7242 13.2801C13.9431 13.1763 14.0364 12.9145 13.9325 12.695L12.3321 9.32103C12.2282 9.10154 11.9664 9.00823 11.747 9.1121ZM8.94341 6.89193C11.6842 5.59198 14.9595 6.76046 16.2589 9.50062C17.5589 12.2414 16.391 15.5168 13.6502 16.8167C12.9137 17.1659 12.1384 17.3367 11.3731 17.3472L7.0918 8.31981C7.5836 7.73352 8.20687 7.24112 8.94341 6.89193Z" fill="white"/>
<mask id="mask28_3450_27692" style="mask-type:luminance" maskUnits="userSpaceOnUse" x="6" y="5" width="12" height="14">
<mask id="mask29_3450_27692" style="mask-type:luminance" maskUnits="userSpaceOnUse" x="6" y="5" width="12" height="14">
<path d="M6.04883 5.48726H17.6615V18.2385H6.04883V5.48726Z" fill="white"/>
</mask>
<g mask="url(#mask29_3450_27692)">
<path d="M6.04883 4.5958H18.5535V18.2385H6.04883V4.5958Z" fill="black"/>
<mask id="mask30_3450_27692" style="mask-type:luminance" maskUnits="userSpaceOnUse" x="6" y="4" width="13" height="15">
<path d="M6.04297 4.59812H18.5471V18.2408H6.04297V4.59812Z" fill="white"/>
</mask>
<g mask="url(#mask30_3450_27692)">
<path d="M5.69531 3.37392H19.7699V18.9721H5.69531V3.37392Z" fill="white"/>
<path d="M11.7372 9.11636C11.5177 9.22024 11.4244 9.48258 11.5288 9.70207L13.1293 13.0761C13.2331 13.2956 13.4949 13.3889 13.7144 13.285C13.9333 13.1805 14.0266 12.9188 13.9233 12.6993L12.3229 9.32529C12.2184 9.1058 11.9567 9.01248 11.7372 9.11636ZM8.93365 6.89618C11.6744 5.59624 14.9498 6.76472 16.2491 9.50488C17.5491 12.2456 16.3812 15.521 13.641 16.821C12.9039 17.1702 12.1286 17.3409 11.3639 17.3515L7.08203 8.32348C7.57443 7.73777 8.19711 7.24538 8.93365 6.89618Z" fill="#050606"/>
</g>
</g>
</mask>
<g mask="url(#mask28_3450_27692)">
<mask id="mask31_3450_27692" style="mask-type:luminance" maskUnits="userSpaceOnUse" x="6" y="5" width="12" height="14">
<path d="M6.04883 5.48726H17.6615V18.2385H6.04883V5.48726Z" fill="white"/>
</mask>
<g mask="url(#mask31_3450_27692)">
<path d="M12.323 9.32666L13.1171 8.94988C12.8048 8.29257 12.019 8.01204 11.3611 8.32426L11.7379 9.11773L12.1141 9.91178C11.8952 10.0157 11.6328 9.92234 11.5289 9.70344L12.323 9.32666ZM13.9234 12.7012L14.7175 12.3245L13.1171 8.94988L12.323 9.32666L11.5289 9.70344L13.1294 13.0774L13.9234 12.7012ZM13.7145 13.2864L14.0913 14.0804C14.7492 13.7682 15.0291 12.9823 14.7175 12.3245L13.9234 12.7012L13.1294 13.0774C13.0255 12.8585 13.1188 12.5962 13.3383 12.4923L13.7145 13.2864ZM13.1294 13.0774L12.3353 13.4542C12.6475 14.1121 13.4334 14.392 14.0913 14.0804L13.7145 13.2864L13.3383 12.4923C13.5572 12.3884 13.8196 12.4817 13.9234 12.7012L13.1294 13.0774ZM11.5289 9.70344L10.7349 10.0796L12.3353 13.4542L13.1294 13.0774L13.9234 12.7012L12.323 9.32666L11.5289 9.70344ZM11.7379 9.11773L11.3611 8.32426C10.7032 8.6359 10.4233 9.42173 10.7349 10.0796L11.5289 9.70344L12.323 9.32666C12.4269 9.54615 12.3336 9.8079 12.1141 9.91178L11.7379 9.11773ZM7.08272 8.32543L7.75588 8.8906C8.16787 8.3988 8.69078 7.98563 9.31053 7.6916L8.93434 6.89755L8.55756 6.10408C7.70482 6.50845 6.98119 7.07948 6.40957 7.76027L7.08272 8.32543ZM11.364 17.3529L12.1581 16.9761L7.87678 7.94866L7.08272 8.32543L6.28867 8.70163L10.57 17.7296L11.364 17.3529ZM13.6411 16.8223L13.2644 16.0283C12.6446 16.3223 11.9938 16.4655 11.3523 16.4743L11.364 17.3529L11.3758 18.2314C12.2643 18.2197 13.1646 18.0207 14.0179 17.6164L13.6411 16.8223ZM16.2498 9.50624L15.4558 9.88302C16.548 12.1854 15.5667 14.9367 13.2644 16.0283L13.6411 16.8223L14.0179 17.6164C17.1971 16.1087 18.5516 12.3092 17.0439 9.13005L16.2498 9.50624ZM8.93434 6.89755L9.31053 7.6916C11.6129 6.6 14.3642 7.58127 15.4558 9.88302L16.2498 9.50624L17.0439 9.13005C15.5362 5.95091 11.7367 4.59579 8.55756 6.10408L8.93434 6.89755ZM7.08272 8.32543L6.40957 7.76027L6.04688 8.19221L6.28867 8.70163L7.08272 8.32543ZM11.364 17.3529L10.57 17.7296L10.8118 18.2391L11.3758 18.2314L11.364 17.3529Z" fill="#835CB3"/>
</g>
</g>
</svg>
