<svg width="27" height="40" viewBox="0 0 27 40" fill="none" xmlns="http://www.w3.org/2000/svg">
<path d="M12.0013 0.588342C11.5259 0.910222 11.1251 1.18094 11.1081 1.1916C11.0868 1.20439 11.2104 1.86094 11.754 4.59372C12.1228 6.45466 12.4297 7.98092 12.4318 7.98306C12.4361 7.98519 12.5406 7.97879 12.6685 7.966L12.8965 7.94255V3.97128C12.8965 1.78633 12.8902 4.60687e-06 12.8816 4.60687e-06C12.871 0.00213626 12.4766 0.266462 12.0013 0.588342ZM12.726 4.04802C12.726 7.42883 12.7239 7.77628 12.6919 7.78907C12.6407 7.80826 12.5555 7.804 12.5555 7.78055C12.5555 7.76989 12.2677 6.31184 11.9139 4.54043C11.5621 2.76689 11.2765 1.30884 11.2808 1.29818C11.2871 1.27687 12.6834 0.324016 12.7111 0.321885C12.7196 0.319753 12.726 1.99737 12.726 4.04802Z" fill="black"/>
<path d="M13.0884 3.9713V7.94258L13.3186 7.96602C13.4444 7.97881 13.5488 7.98734 13.5509 7.98521C13.5595 7.97881 14.9024 1.2108 14.896 1.20441C14.8449 1.16391 13.1097 2.39451e-05 13.1012 2.39451e-05C13.0948 2.39451e-05 13.0884 1.78635 13.0884 3.9713Z" fill="black"/>
<path d="M8.83359 1.02748C8.88475 1.14899 9.56688 2.79676 10.3492 4.68967C11.1337 6.58258 11.7795 8.13869 11.7859 8.14722C11.7966 8.15787 12.1973 8.04916 12.2315 8.02571C12.2421 8.01719 10.8928 1.27049 10.8779 1.2577C10.8693 1.24918 10.4004 1.15112 9.8376 1.03601C9.27485 0.923033 8.79736 0.824977 8.77817 0.818582C8.74833 0.810055 8.75899 0.852688 8.83359 1.02748Z" fill="black"/>
<path d="M16.158 1.03384C15.1433 1.24061 15.1028 1.25127 15.0857 1.30243C15.0623 1.37491 13.7449 8.01928 13.7535 8.02567C13.7684 8.03846 14.1862 8.1621 14.1926 8.15571C14.2096 8.13865 17.2238 0.844125 17.2195 0.831335C17.2153 0.822809 16.7378 0.91447 16.158 1.03384ZM16.936 1.085C16.9083 1.17453 14.1094 7.91909 14.0924 7.93614C14.0839 7.94467 14.0455 7.94041 14.0071 7.92762C13.9517 7.90843 13.9389 7.89351 13.9496 7.85727C13.956 7.83383 14.2437 6.38217 14.5912 4.63634C14.9387 2.88838 15.2264 1.44525 15.2328 1.42607C15.2392 1.40049 15.4353 1.35359 16.0791 1.22143C16.5374 1.1255 16.9232 1.04663 16.9318 1.04663C16.9424 1.0445 16.9445 1.06155 16.936 1.085Z" fill="black"/>
<path d="M7.95318 1.80127L7.35419 2.70936L9.27481 5.58283L11.1976 8.45844L11.4043 8.34972L11.6111 8.23887L11.5322 8.04703C11.1272 7.05581 8.58202 0.923031 8.56923 0.910241C8.5607 0.901714 8.28359 1.30247 7.95318 1.80127ZM9.9612 4.69606C10.7435 6.58471 11.383 8.13869 11.383 8.14721C11.383 8.16427 11.2551 8.23674 11.2466 8.22395C11.1485 8.09392 7.58227 2.73281 7.58014 2.71362C7.57801 2.68591 8.50528 1.2577 8.5266 1.2577C8.53299 1.2577 9.17675 2.80528 9.9612 4.69606Z" fill="black"/>
<path d="M17.3943 0.940044C17.3815 0.967755 16.6973 2.62192 15.8723 4.61502L14.3716 8.2367L14.5443 8.3305C14.6402 8.38166 14.7319 8.43282 14.7468 8.44561C14.7639 8.46053 14.7809 8.46053 14.7916 8.44987C14.8001 8.43921 15.6677 7.14316 16.7186 5.56787L18.6286 2.70719L18.0402 1.81615C17.7183 1.32801 17.4455 0.918727 17.4348 0.908069C17.4263 0.897411 17.4071 0.9102 17.3943 0.940044Z" fill="black"/>
<path d="M6.13279 3.02696C5.55084 3.13994 5.06909 3.238 5.06269 3.24226C5.05843 3.24865 6.32037 4.51912 7.86582 6.06457L10.6796 8.87836L10.7585 8.80162C10.8032 8.75898 10.8842 8.69077 10.9397 8.64601L11.0377 8.56714L9.12989 5.70645C8.07899 4.13329 7.21353 2.83938 7.20714 2.83298C7.20074 2.82659 6.71686 2.91398 6.13279 3.02696Z" fill="black"/>
<path d="M16.8614 5.69795L14.9387 8.57356L14.9898 8.60767C15.0154 8.62685 15.0964 8.69293 15.1689 8.75262L15.2989 8.86346L18.1106 6.05181C20.3872 3.7752 20.9158 3.23589 20.8796 3.22737C20.8561 3.2231 20.3744 3.12931 19.8095 3.02059L18.7842 2.82235L16.8614 5.69795ZM19.7285 3.17621C20.174 3.26147 20.5449 3.33821 20.5534 3.34461C20.562 3.35313 19.3832 4.54473 17.9315 5.99426L15.2946 8.63111L15.2328 8.58209L15.1731 8.53093L17.0213 5.7683C18.0487 4.23138 18.8801 3.0078 18.8929 3.01207C18.9078 3.01633 19.283 3.09094 19.7285 3.17621Z" fill="black"/>
<path d="M4.90279 3.36804C4.90066 3.37443 4.80687 3.86045 4.69389 4.44879L4.48499 5.51675L7.34993 7.43311C8.92523 8.48615 10.2213 9.34947 10.2298 9.35373C10.2469 9.36013 10.5304 9.02546 10.5304 8.99988C10.5304 8.98282 4.90279 3.35099 4.90279 3.36804ZM10.2618 9.06809C10.2383 9.09793 10.2149 9.12351 10.2064 9.12351C10.1978 9.12351 8.94868 8.2943 7.43094 7.27963L4.67257 5.43575L4.70028 5.29292C4.7152 5.21192 4.78768 4.84101 4.86016 4.46584C4.9305 4.09067 4.99445 3.76879 5.00085 3.75174C5.00724 3.73255 5.93451 4.6449 7.65689 6.36728L10.3023 9.01267L10.2618 9.06809Z" fill="black"/>
<path d="M18.2534 6.18608L15.4353 9.00626L15.5142 9.09152C15.5568 9.13842 15.6272 9.21942 15.6677 9.27058L15.7423 9.36224L18.6051 7.45015C20.1804 6.39924 21.4743 5.52526 21.4785 5.51034C21.4892 5.48476 21.1226 3.53003 21.0863 3.41492C21.0735 3.37442 20.7495 3.68991 18.2534 6.18608Z" fill="black"/>
<path d="M3.47032 6.28412C2.98004 6.60813 2.57928 6.88098 2.57928 6.88738C2.57928 6.91509 9.92071 9.93991 9.92924 9.91433C9.93776 9.88875 10.0145 9.74166 10.0891 9.60737C10.1168 9.56047 10.1253 9.5221 10.1126 9.50931C10.0571 9.46029 4.4189 5.70644 4.39119 5.70004C4.37414 5.69578 3.95847 5.96011 3.47032 6.28412Z" fill="black"/>
<path d="M18.7266 7.59939C17.1556 8.6503 15.868 9.51575 15.8638 9.52641C15.8595 9.5392 16.0322 9.89092 16.0642 9.92929C16.0727 9.93995 23.4056 6.90021 23.4056 6.88742C23.4035 6.8725 21.6384 5.70435 21.6065 5.69583C21.5937 5.69369 20.2976 6.55062 18.7266 7.59939ZM23.0219 6.85331C23.0176 6.8725 16.1558 9.72679 16.1452 9.714C16.143 9.71186 16.1281 9.67989 16.1089 9.64365L16.0748 9.57757L18.8353 7.73369L21.5979 5.88767L22.3099 6.35877C22.7021 6.61883 23.0219 6.84052 23.0219 6.85331Z" fill="black"/>
<path d="M2.4791 7.12186C2.4855 7.14957 2.58569 7.63133 2.69866 8.19195C2.88838 9.11496 2.91183 9.21088 2.9502 9.21941C3.12073 9.25991 9.65426 10.5517 9.6841 10.5517C9.70329 10.5517 9.72034 10.5346 9.72034 10.5133C9.72034 10.4941 9.74805 10.3961 9.78216 10.298L9.84185 10.1211L9.75445 10.0827C9.55407 9.99533 2.54305 7.09202 2.50682 7.08136C2.47271 7.07283 2.46845 7.07923 2.4791 7.12186ZM6.19245 8.78882L9.6031 10.2042L9.59884 10.2724C9.59884 10.3108 9.59031 10.3471 9.58392 10.3535C9.57113 10.3684 3.08663 9.08085 3.06318 9.05954C3.04826 9.04675 2.70719 7.42882 2.70719 7.37127C2.70719 7.36061 2.72424 7.35634 2.74556 7.36274C2.76475 7.37127 4.31659 8.01289 6.19245 8.78882Z" fill="black"/>
<path d="M19.7988 8.59697C16.8848 9.80562 16.1409 10.1211 16.1515 10.1467C16.1579 10.1637 16.1899 10.2618 16.2198 10.3641C16.2581 10.492 16.2858 10.5517 16.3072 10.5517C16.3477 10.5517 23.0666 9.21515 23.073 9.20449C23.0773 9.20236 23.1732 8.73766 23.2862 8.1749C23.4013 7.61214 23.4994 7.13465 23.5036 7.11334C23.51 7.09202 23.5036 7.0771 23.4866 7.07923C23.4716 7.07923 21.8111 7.76349 19.7988 8.59697Z" fill="black"/>
<path d="M12.6045 8.34972C12.5512 8.35398 12.5128 8.3689 12.5128 8.38383C12.5128 8.39875 12.5981 8.83574 12.7025 9.35799L12.8944 10.3066V9.31962L12.8965 8.3348L12.7963 8.33906C12.7388 8.34119 12.6535 8.34546 12.6045 8.34972Z" fill="black"/>
<path d="M13.0905 9.30685L13.0926 10.2853L13.2845 9.3303C13.3911 8.80591 13.4742 8.37318 13.4699 8.36892C13.4657 8.36252 13.3762 8.35187 13.2738 8.34334L13.0884 8.32842L13.0905 9.30685Z" fill="black"/>
<path d="M13.4763 9.36649C13.3719 9.89515 13.2887 10.33 13.2909 10.3321C13.2909 10.3343 13.3719 10.1488 13.4657 9.91646C13.5616 9.68624 13.73 9.2791 13.8408 9.01051C14.0711 8.46054 14.0732 8.51596 13.8217 8.44562L13.6682 8.40299L13.4763 9.36649Z" fill="black"/>
<path d="M12.0865 8.46908C12.0098 8.49466 11.9479 8.5245 11.9501 8.53303C11.9522 8.565 12.6706 10.2938 12.6791 10.2852C12.6834 10.2831 12.6024 9.86105 12.5 9.34945C12.289 8.29215 12.3338 8.38594 12.0865 8.46908Z" fill="black"/>
<path d="M11.5898 8.6801C11.5003 8.72699 11.4257 8.77602 11.4257 8.78668C11.4257 8.80587 12.4531 10.3471 12.4936 10.3918C12.5064 10.4025 12.4958 10.3705 12.4723 10.3172C12.451 10.2639 12.2805 9.85677 12.0971 9.41126C11.9138 8.96574 11.7603 8.59909 11.7582 8.59696C11.7582 8.59483 11.6815 8.6332 11.5898 8.6801Z" fill="black"/>
<path d="M13.9666 9.21512C13.8238 9.55619 13.6554 9.96759 13.5893 10.1253C13.5232 10.2831 13.4785 10.4025 13.4891 10.3918C13.5211 10.3598 14.54 8.82503 14.5507 8.79518C14.5571 8.77813 14.4995 8.73337 14.3929 8.68007L14.2245 8.59054L13.9666 9.21512Z" fill="black"/>
<path d="M11.0995 9.00625C11.0207 9.07233 10.9567 9.13201 10.9567 9.14054C10.9567 9.14907 11.2701 9.46669 11.6516 9.84825C12.0353 10.2298 12.3402 10.5261 12.3295 10.5091C12.2997 10.4536 11.2552 8.88901 11.2488 8.88901C11.2445 8.88901 11.1784 8.9423 11.0995 9.00625Z" fill="black"/>
<path d="M14.1862 9.70329L13.6426 10.5197L14.3354 9.82693L15.0303 9.13414L14.9386 9.05313C14.8875 9.00837 14.8214 8.95295 14.7894 8.9295L14.7319 8.88687L14.1862 9.70329Z" fill="black"/>
<path d="M10.7499 9.34089C10.6391 9.4624 10.5645 9.57111 10.5858 9.5903C10.5965 9.60096 10.9695 9.85036 11.415 10.1467L12.225 10.6838L11.5216 9.97826C11.1358 9.5903 10.8181 9.27268 10.8181 9.27268C10.816 9.27268 10.7862 9.30466 10.7499 9.34089Z" fill="black"/>
<path d="M14.4633 9.97826L13.7598 10.6838L14.5699 10.1467C15.0154 9.85036 15.3884 9.60096 15.3991 9.5903C15.4097 9.57964 15.3799 9.52422 15.3287 9.45814C15.1603 9.23857 15.2562 9.18315 14.4633 9.97826Z" fill="black"/>
<path d="M2.27451 10.3002L1.66486 11.2018L5.64253 11.2082C7.83174 11.2104 9.62233 11.2104 9.62446 11.2082C9.62659 11.204 9.63512 11.1017 9.64365 10.978L9.65644 10.7521L6.29481 10.0849C4.44454 9.71608 2.9204 9.41125 2.90761 9.40699C2.89482 9.40273 2.60918 9.80348 2.27451 10.3002Z" fill="black"/>
<path d="M19.6965 10.0806C17.2153 10.5773 16.32 10.7649 16.3242 10.7841C16.3264 10.799 16.3349 10.9013 16.3434 11.0121L16.3562 11.2125H20.3403H24.3243L23.881 10.556C23.2074 9.55836 23.1072 9.41127 23.0901 9.40914C23.0816 9.40701 21.5553 9.70971 19.6965 10.0806ZM23.2692 9.95911C23.4077 10.1616 23.6294 10.4878 23.7616 10.6839L24.0046 11.042H20.2657H16.5246L16.514 10.9716C16.5097 10.9354 16.5076 10.8992 16.5118 10.8949C16.5182 10.8885 22.943 9.60099 23.0048 9.5946C23.0134 9.59247 23.1327 9.75873 23.2692 9.95911Z" fill="black"/>
<path d="M10.3599 9.90151C10.3087 9.99317 10.2789 10.072 10.2874 10.0827C10.2981 10.0934 10.6668 10.249 11.106 10.4323C11.5451 10.6135 11.9437 10.7776 11.9906 10.7968C12.0375 10.816 12.0673 10.8245 12.0545 10.8117C12.0332 10.7925 10.4899 9.75869 10.4643 9.7459C10.4558 9.74164 10.4089 9.81198 10.3599 9.90151Z" fill="black"/>
<path d="M14.7021 10.2852C14.2587 10.5837 13.9005 10.8288 13.9069 10.8288C13.9133 10.8288 15.1177 10.3321 15.6315 10.1168L15.7125 10.0827L15.6251 9.91218C15.576 9.81839 15.5291 9.74165 15.5206 9.74165C15.5142 9.74378 15.1454 9.98892 14.7021 10.2852Z" fill="black"/>
<path d="M10.1787 10.3002C10.1446 10.3876 10.0849 10.6242 10.0934 10.6327C10.1062 10.6455 11.9863 11.0207 11.9949 11.0143C12.0012 11.0079 10.2277 10.2746 10.2043 10.2746C10.1957 10.2746 10.1829 10.2874 10.1787 10.3002Z" fill="black"/>
<path d="M14.864 10.6433C14.3802 10.8437 13.9879 11.01 13.9901 11.0121C13.9986 11.0207 15.8808 10.6455 15.8915 10.6327C15.9128 10.6135 15.7956 10.2746 15.7679 10.2767C15.7529 10.2767 15.3479 10.443 14.864 10.6433Z" fill="black"/>
<path d="M12.7473 10.6285C12.6194 10.6753 12.4915 10.7649 12.419 10.8587C12.3465 10.9546 12.2805 11.1017 12.2783 11.1635V11.2125H12.9946H13.7129L13.698 11.1443C13.6596 10.9546 13.5083 10.7627 13.3186 10.6668C13.1736 10.5922 12.8986 10.573 12.7473 10.6285Z" fill="black"/>
<path d="M25.3624 10.8288C25.356 10.8459 25.3177 10.9994 25.2772 11.1699C25.1898 11.5301 25.1024 11.7497 24.9617 11.965C24.8316 12.1654 24.7187 12.2783 24.5225 12.4062C24.4351 12.4638 24.3627 12.5171 24.3627 12.5235C24.3627 12.5299 24.4351 12.5832 24.5225 12.6407C24.7187 12.7686 24.8316 12.8816 24.9617 13.082C25.1024 13.2973 25.1898 13.5168 25.2772 13.8771C25.3709 14.2693 25.3688 14.2693 25.3923 14.1542C25.5628 13.3271 25.7994 12.8987 26.2321 12.6279C26.3195 12.5746 26.3899 12.5278 26.3899 12.5235C26.3899 12.5192 26.3195 12.4723 26.2321 12.419C25.7994 12.1483 25.5628 11.7199 25.3923 10.8928C25.3816 10.8395 25.3667 10.8118 25.3624 10.8288Z" fill="black"/>
<path d="M10.0294 10.9503C10.023 11.0185 10.0124 11.1059 10.0102 11.1422L10.0017 11.2125L10.9652 11.2104L11.9266 11.2083L10.9993 11.0185C10.4899 10.9162 10.0657 10.831 10.0571 10.8288C10.0486 10.8288 10.0379 10.8842 10.0294 10.9503Z" fill="black"/>
<path d="M14.9642 11.0207L14.0369 11.2104H15.0068L15.9789 11.2125L15.9618 11.0463C15.9554 10.9567 15.9469 10.8693 15.9469 10.8544C15.9448 10.8416 15.932 10.8288 15.9192 10.831C15.9043 10.8331 15.4737 10.9184 14.9642 11.0207Z" fill="black"/>
<path d="M21.2398 12.3103C19.9587 12.5043 18.9355 13.3101 18.3237 14.604C18.0786 15.1241 17.9229 15.6592 17.8164 16.3392C17.7609 16.6973 17.7396 17.6054 17.778 18.0168C17.9848 20.3041 19.1977 21.9582 20.9542 22.3483C21.8388 22.5444 22.7 22.4272 23.2137 22.0371C23.2734 21.9923 23.3288 21.9561 23.3395 21.9561C23.3501 21.9561 23.5207 22.0414 23.7211 22.1479C23.9193 22.2524 24.0898 22.3398 24.0962 22.3398C24.1026 22.3398 24.109 21.1397 24.109 19.6752V17.0106H22.6062C21.2931 17.0106 21.1034 17.0149 21.1034 17.0426C21.1034 17.0597 21.1247 17.0789 21.1524 17.0831C21.8772 17.2281 22.636 17.5244 22.8727 17.7525L22.9792 17.8548V19.7434C22.9792 21.4893 22.9771 21.6321 22.943 21.6449C22.9238 21.6534 22.8087 21.6683 22.6872 21.6811C21.3698 21.8133 20.0248 20.8284 19.3384 19.2276C19.0783 18.6201 18.9334 18.0509 18.8289 17.2025C18.7713 16.7229 18.7756 15.7018 18.8396 15.2883C18.9824 14.3717 19.2808 13.6938 19.7498 13.2248C19.9523 13.0223 20.1228 12.9029 20.3871 12.7793C20.6941 12.6344 20.8561 12.596 21.2014 12.5832C21.4594 12.5725 21.5233 12.5768 21.6811 12.6173C22.7448 12.8859 23.4738 14.1052 23.5484 15.7381C23.5548 15.9022 23.5676 16.0216 23.5761 16.0045C23.5846 15.9896 23.7573 15.3693 23.9598 14.6253L24.3307 13.2717L24.1964 13.1502C23.7871 12.7729 23.1583 12.466 22.5401 12.3402C22.2438 12.2805 21.5425 12.2635 21.2398 12.3103Z" fill="black"/>
<path d="M2.00378 12.3955C2.00378 12.4147 2.02297 12.4275 2.05494 12.4275C2.18711 12.4275 2.30861 12.63 2.34485 12.9008C2.37469 13.1246 2.37256 21.6043 2.34272 21.8217C2.30648 22.0925 2.21269 22.2502 2.05921 22.2886C2.02936 22.295 2.00378 22.3163 2.00378 22.3333C2.00378 22.361 2.12316 22.3632 2.95877 22.3546C3.98409 22.344 4.15676 22.3312 4.53619 22.2204C6.02835 21.7876 6.71474 20.2592 6.71474 17.3623C6.71474 14.4334 6.00703 12.8922 4.47651 12.4808C4.10133 12.3806 3.87111 12.3636 2.89695 12.3636C2.11676 12.3636 2.00378 12.3678 2.00378 12.3955ZM3.92227 12.549C4.73444 12.7451 5.21619 13.5275 5.43362 14.9962C5.6276 16.305 5.6276 18.4196 5.43362 19.7284C5.31638 20.5278 5.10961 21.1481 4.83036 21.5382C4.55111 21.9304 4.13118 22.1735 3.67287 22.2054L3.49594 22.2182V17.3516V12.4872L3.6409 12.5021C3.71977 12.5085 3.84554 12.532 3.92227 12.549Z" fill="black"/>
<path d="M7.01312 12.3913C7.01312 12.4084 7.04083 12.4276 7.0792 12.4361C7.23055 12.4659 7.32221 12.6514 7.35419 12.9861C7.37977 13.2504 7.37977 21.4828 7.35419 21.7322C7.32008 22.0605 7.26039 22.1906 7.10478 22.2652C6.91293 22.3568 6.95344 22.3611 7.94039 22.3611C8.71845 22.3611 8.86766 22.3568 8.86766 22.3312C8.86766 22.3142 8.84208 22.295 8.81011 22.2865C8.66089 22.2502 8.56923 22.1095 8.52873 21.8474C8.50102 21.6811 8.49676 18.0999 8.52234 18.1319C8.56284 18.1745 9.95481 21.679 9.99531 21.8367C10.0209 21.9305 10.0401 22.0392 10.0401 22.0776C10.0401 22.1778 9.98891 22.2673 9.92283 22.2843C9.89299 22.2929 9.86954 22.3121 9.86954 22.3291C9.86954 22.3568 9.99105 22.3611 10.7968 22.3611C11.5749 22.3611 11.7241 22.3568 11.7241 22.3312C11.7241 22.3142 11.6985 22.295 11.6665 22.2865C11.5813 22.2652 11.4789 22.182 11.4022 22.069C11.3063 21.9305 11.2125 21.7131 10.4728 19.9097C10.1147 19.0357 9.81199 18.3109 9.79707 18.2981C9.78428 18.2854 9.53913 18.1937 9.25136 18.0978C8.96359 17.9997 8.70139 17.9081 8.66942 17.8953C8.61186 17.8718 8.61826 17.8676 8.86127 17.7674C10.4451 17.1257 11.2807 16.3029 11.4491 15.2115C11.4853 14.9813 11.4598 14.3162 11.4086 14.0903C11.2082 13.2333 10.7009 12.726 9.81838 12.5022C9.36647 12.3871 9.25349 12.3785 8.096 12.37C7.15808 12.3615 7.01312 12.3636 7.01312 12.3913ZM8.84635 12.5128C9.89938 12.6429 10.3385 13.3122 10.3385 14.7916C10.3385 15.4844 10.1765 16.0535 9.83544 16.5694C9.65211 16.8444 9.23644 17.2664 8.96359 17.4519C8.73976 17.6032 8.55431 17.7141 8.5266 17.7141C8.51381 17.7141 8.50528 16.7484 8.50528 15.1028V12.4915H8.58628C8.63105 12.4915 8.74829 12.5022 8.84635 12.5128Z" fill="black"/>
<path d="M13.8238 12.3871C13.8152 12.3999 13.8131 12.4105 13.8152 12.4126C13.8898 12.451 13.9154 12.4766 13.9559 12.5469C14.0391 12.6919 14.0582 12.8837 14.0561 13.5041C14.054 14.216 13.9751 15.0879 13.8323 15.9427C13.7641 16.3498 12.7345 21.0267 12.6705 21.21C12.5981 21.4253 12.3657 21.9006 12.2591 22.0605C12.2101 22.1309 12.1376 22.2161 12.0971 22.2481C11.9564 22.3611 11.9586 22.3611 12.7473 22.3611C13.3484 22.3611 13.472 22.3568 13.472 22.3312C13.472 22.3163 13.4443 22.2907 13.4081 22.2758C13.2546 22.2119 13.0969 21.9518 13.0095 21.6171C12.9668 21.4551 12.9562 21.3571 12.9541 21.146C12.9519 20.8924 12.9562 20.8604 13.0606 20.4533C13.2951 19.5388 13.8835 16.7975 14.4633 13.9091C14.5635 13.4039 14.653 12.9775 14.6594 12.9605C14.6679 12.9392 14.6764 12.9498 14.6892 12.9925C14.6977 13.0266 15.139 15.0239 15.6655 17.4306C16.2986 20.3062 16.6269 21.8452 16.6269 21.9241C16.6269 22.1287 16.5395 22.2588 16.3796 22.2886C16.3391 22.2971 16.3093 22.3121 16.3135 22.327C16.3199 22.344 16.5971 22.3526 17.3048 22.3568C18.1361 22.3611 18.2896 22.3568 18.2896 22.3312C18.2896 22.3142 18.2576 22.295 18.2107 22.2865C18.0423 22.2566 17.9229 22.1564 17.8249 21.9646C17.7993 21.9134 17.3794 20.0568 16.7356 17.1343C16.1601 14.5251 15.689 12.3828 15.689 12.3764C15.689 12.353 13.8387 12.3615 13.8238 12.3871Z" fill="black"/>
<path d="M26.2748 13.2696C26.2279 13.4316 26.1704 13.5254 26.0787 13.5872L26.0062 13.6362L26.0616 13.6661C26.1405 13.7066 26.23 13.8473 26.2748 13.9944L26.3111 14.1223L26.3409 14.005C26.375 13.8686 26.4496 13.7492 26.5391 13.6831L26.6031 13.6362L26.5178 13.5616C26.4176 13.4785 26.3793 13.4103 26.3388 13.2547L26.3111 13.1417L26.2748 13.2696Z" fill="black"/>
<path d="M24.8189 14.491C24.7634 14.7809 24.6334 15.0111 24.4522 15.139L24.3414 15.2157L24.416 15.2605C24.6036 15.3777 24.7379 15.593 24.8103 15.9L24.8487 16.062L24.8743 15.9661C24.9276 15.7508 24.9489 15.6932 25.0086 15.5739C25.0725 15.446 25.2303 15.2754 25.3027 15.252C25.3624 15.2328 25.356 15.2093 25.2729 15.1582C25.096 15.0473 24.9745 14.8512 24.8977 14.5485C24.8743 14.4569 24.853 14.378 24.8487 14.3737C24.8444 14.3716 24.8317 14.4228 24.8189 14.491Z" fill="black"/>
<path d="M14.6402 17.3538C14.5422 17.7631 14.3844 18.0296 14.1542 18.1766C14.0839 18.2214 14.0263 18.264 14.0263 18.2726C14.0263 18.2811 14.0689 18.3131 14.1222 18.3429C14.2608 18.4239 14.4207 18.6115 14.5059 18.7906C14.5763 18.9355 14.685 19.3 14.6893 19.4066C14.6893 19.4301 14.7191 19.3405 14.7532 19.2062C14.8577 18.782 15.0239 18.5092 15.2669 18.3514L15.3906 18.2726L15.284 18.2044C15.0282 18.0402 14.8577 17.7674 14.7596 17.3624C14.7298 17.2323 14.702 17.1257 14.6999 17.1236C14.6999 17.1215 14.6722 17.2259 14.6402 17.3538Z" fill="black"/>
<path d="M4.3912 23.024C3.44049 23.1455 2.75622 23.5825 2.43861 24.271C2.31497 24.5375 2.27234 24.7549 2.27234 25.1216C2.27234 25.874 2.52174 26.4475 3.12074 27.0656C3.41704 27.3726 3.62381 27.5517 4.17804 27.9737C5.26305 28.8008 5.63396 29.1355 5.98995 29.613C6.12637 29.7942 6.30117 30.0905 6.37578 30.2653C6.41628 30.3612 6.42907 30.3782 6.46744 30.3676C6.78292 30.2866 8.13866 29.9157 8.13439 29.9135C8.13226 29.9093 8.02994 29.8965 7.91057 29.8858C7.7912 29.873 7.66969 29.8538 7.64198 29.8432C7.60574 29.8304 7.56098 29.7622 7.48637 29.6044C7.23696 29.0907 6.85327 28.6281 6.26493 28.1357C6.13064 28.0228 5.76825 27.7414 5.45703 27.509C5.14581 27.2767 4.79196 27.0038 4.66832 26.9015C4.38907 26.6692 4.02456 26.294 3.87961 26.0872C3.724 25.8698 3.5492 25.4967 3.48099 25.2473C3.43196 25.0598 3.42556 24.9937 3.42343 24.6633C3.4213 24.2327 3.44262 24.1218 3.58331 23.8362C3.74318 23.51 4.04801 23.282 4.42957 23.2031C4.66192 23.1562 4.99233 23.1604 5.17139 23.2159C6.05603 23.4823 6.69766 24.8061 6.84261 26.6436C6.85327 26.8013 6.86392 27.006 6.86392 27.0997V27.266L6.94493 27.2596L7.0238 27.2532L7.35847 25.7611C7.54179 24.9404 7.69953 24.2305 7.70593 24.1815L7.72085 24.0941L7.50982 23.9172C6.87885 23.3885 6.22869 23.1114 5.41014 23.024C5.17139 22.9963 4.59584 22.9984 4.3912 23.024Z" fill="black"/>
<path d="M8.16425 23.1924C8.16425 23.2222 8.17917 23.235 8.20901 23.235C8.33478 23.235 8.44989 23.3736 8.52023 23.6102C8.55434 23.7274 8.5586 23.947 8.565 26.7672C8.56713 28.4363 8.57352 29.8005 8.57566 29.8005C8.57779 29.8005 9.10857 29.6556 9.75233 29.4808L10.9247 29.1632L10.3854 29.1568L9.84825 29.1504V26.4645C9.85039 24.9873 9.85891 23.7402 9.86744 23.6933C9.90581 23.5079 9.94631 23.4141 10.0316 23.3267C10.0913 23.2627 10.136 23.235 10.1744 23.235C10.217 23.235 10.232 23.2244 10.232 23.1924C10.232 23.1498 10.217 23.1498 9.1981 23.1498C8.17917 23.1498 8.16425 23.1498 8.16425 23.1924Z" fill="black"/>
<path d="M15.4033 23.1839C15.3863 23.2308 15.3841 23.2287 15.4417 23.2436C15.7209 23.3139 15.7551 24.5268 15.527 26.3686C15.4609 26.9015 15.365 27.4877 15.2989 27.7755C15.269 27.8991 15.2562 27.9886 15.269 27.9886C15.301 27.9886 16.1004 27.7734 16.1324 27.7542C16.1494 27.7456 16.0727 27.7328 15.9618 27.7265C15.77 27.7137 15.6442 27.6881 15.5867 27.6518C15.5675 27.6391 15.6293 27.3001 15.8574 26.1853C16.0215 25.3902 16.1942 24.5311 16.2453 24.2796C16.3349 23.8277 16.3413 23.7957 16.3583 23.8127C16.3626 23.817 16.5459 24.6419 16.7655 25.6438C16.985 26.6457 17.1683 27.4685 17.1705 27.4728C17.1769 27.4813 19.575 26.8376 19.5878 26.8248C19.5942 26.8184 19.5068 26.8205 19.3959 26.8269C19.2851 26.8312 18.9973 26.8418 18.7522 26.8482C18.4004 26.8589 18.3088 26.8546 18.3003 26.8333C18.2939 26.8184 18.1084 25.9849 17.8888 24.983L17.486 23.1604L16.4521 23.1541C15.5206 23.1498 15.4161 23.1519 15.4033 23.1839Z" fill="black"/>
<path d="M19.1679 23.186C19.1721 23.2073 19.202 23.2286 19.2382 23.235C19.396 23.2691 19.6198 23.4503 19.7029 23.6102C19.72 23.6443 19.914 24.3222 20.1357 25.1152C20.3573 25.9103 20.5471 26.5604 20.5577 26.5604C20.5748 26.5604 21.5084 26.2407 22.1799 26.0041C22.5039 25.889 22.4997 25.889 22.0371 25.9764C21.8644 26.0083 21.7173 26.0318 21.7131 26.0254C21.7088 26.0211 21.5681 25.5266 21.3997 24.9297C21.1098 23.8937 21.097 23.834 21.0949 23.6401C21.0928 23.4844 21.1013 23.4226 21.1311 23.3693C21.1716 23.2926 21.2654 23.235 21.3486 23.235C21.3869 23.235 21.4019 23.2244 21.4019 23.1924C21.4019 23.1498 21.3869 23.1498 20.2806 23.1498C19.2361 23.1498 19.1615 23.1519 19.1679 23.186Z" fill="black"/>
<path d="M22.7554 23.1711C22.7384 23.1988 22.7618 23.2351 22.7981 23.2351C22.845 23.2351 22.9558 23.3395 23.0006 23.4248C23.169 23.7573 23.1903 24.6079 23.0539 25.6652C23.0389 25.7888 23.0283 25.8911 23.0304 25.8933C23.0347 25.8996 24.3286 25.3795 24.3968 25.3454L24.4394 25.322L24.3968 25.3369C24.2945 25.3667 23.5378 25.5565 23.4653 25.5692C23.4205 25.5756 23.3843 25.5735 23.3843 25.5628C23.3843 25.5351 23.6209 24.7848 23.7339 24.4608C23.9364 23.8703 24.1304 23.4312 24.2497 23.3012C24.3904 23.1434 24.4181 23.1498 23.5463 23.1498C23.0496 23.1498 22.764 23.1583 22.7554 23.1711Z" fill="black"/>
<path d="M0.982694 25.0896C0.833478 25.8762 0.569152 26.3452 0.127899 26.6138C0.0575547 26.6564 0 26.6948 0 26.699C0 26.7054 0.081003 26.7608 0.179059 26.8269C0.381567 26.9591 0.492413 27.0742 0.628839 27.2959C0.78445 27.5432 0.867584 27.7904 0.995484 28.3617C1.01467 28.4449 1.0168 28.4406 1.0637 28.2125C1.21504 27.4984 1.44313 27.0913 1.84602 26.8269C1.94407 26.7608 2.02507 26.7054 2.02507 26.7012C2.02507 26.6969 1.94833 26.6436 1.85667 26.5839C1.46232 26.3281 1.23849 25.9466 1.08501 25.2708C1.04878 25.1173 1.01893 24.9852 1.01467 24.9724C1.01254 24.9617 0.997616 25.015 0.982694 25.0896Z" fill="black"/>
<path d="M23.3715 26.8503L23.2436 26.8823L23.2159 27.0145C23.0901 27.6391 22.5231 29.7174 22.4869 29.6769C22.4805 29.6684 22.3568 29.1014 22.214 28.415C22.0712 27.7307 21.9497 27.1658 21.9454 27.1616C21.9305 27.1445 20.756 27.4046 20.7474 27.4259C20.7432 27.4387 20.8647 28.0206 21.016 28.7177L21.2931 29.9839L21.242 30.9964C21.2121 31.5528 21.1887 32.0388 21.1887 32.075C21.1887 32.1432 21.1802 32.1496 20.9116 32.2839C20.4511 32.5142 19.9928 32.8467 19.688 33.1686C19.6091 33.2538 19.5409 33.3178 19.5366 33.3135C19.5345 33.3114 19.3064 32.0963 19.0336 30.6148C18.7607 29.1333 18.5305 27.9119 18.522 27.8991C18.5113 27.8821 18.3237 27.914 17.9081 28.0014C17.3517 28.1187 17.3112 28.1293 17.3197 28.1698C17.3261 28.1933 17.5563 29.436 17.8335 30.9303C18.2854 33.3711 18.3344 33.6631 18.3237 33.7953C18.3003 34.0553 18.183 34.2451 18.0296 34.2685C17.9699 34.2792 17.9486 34.292 17.9486 34.3218C17.9486 34.3602 17.9869 34.3623 19.057 34.3623C20.1506 34.3623 20.1655 34.3623 20.1655 34.3197C20.1655 34.2898 20.1506 34.277 20.1186 34.277C20.0312 34.277 19.8564 34.1768 19.7754 34.0852C19.6859 33.9807 19.6219 33.823 19.5921 33.6418C19.5729 33.5331 19.5772 33.5139 19.6177 33.4563C19.7711 33.2368 20.044 32.9853 20.3424 32.7849C20.5066 32.6762 21.0928 32.3799 21.146 32.3799C21.1674 32.3799 21.1695 32.4438 21.1588 32.6719C21.1141 33.5544 21.0821 33.8166 20.9883 34.0298C20.9329 34.1555 20.805 34.277 20.7304 34.277C20.692 34.277 20.6771 34.2877 20.6771 34.3197C20.6771 34.3623 20.692 34.3623 21.7109 34.3623C22.7299 34.3623 22.7448 34.3623 22.7448 34.3197C22.7448 34.2941 22.7299 34.277 22.7107 34.277C22.6361 34.277 22.5338 34.1875 22.4783 34.0788C22.3909 33.8976 22.3824 33.7079 22.4272 32.8105C22.4485 32.3735 22.4719 32.0068 22.4783 31.9983C22.5018 31.9578 22.9217 31.9216 23.3523 31.9216C23.7275 31.9237 23.8383 31.9301 24.0387 31.9706C24.9489 32.1518 25.6374 32.6484 25.9188 33.3263C26.1341 33.8464 26.1768 34.4113 26.0297 34.8483C25.9423 35.1105 25.8016 35.3834 25.6502 35.588C25.4051 35.9163 24.9809 36.2765 24.578 36.5004C24.2838 36.6624 23.4866 36.9757 23.1541 37.061C23.0454 37.0887 22.9473 37.1164 22.9388 37.1228C22.9281 37.1271 22.9153 37.1867 22.9089 37.255C22.8919 37.402 22.8301 37.6514 22.7661 37.8198C22.6808 38.0501 22.3014 38.5276 22.0094 38.7748C21.4914 39.2118 20.7474 39.5635 19.98 39.7277C19.7157 39.7852 19.6901 39.7874 19.0783 39.7852C18.3259 39.781 17.8761 39.7426 17.5094 39.6488C16.7101 39.4442 15.996 39.1649 15.0964 38.713C14.3354 38.3272 13.8068 38.0224 11.8733 36.8414C10.0636 35.7394 9.07874 35.2533 7.96176 34.9165C7.20075 34.6863 6.68916 34.6501 6.15411 34.7865C5.54446 34.9442 5.11173 35.2725 4.89857 35.7415C4.60653 36.3874 4.76214 37.0439 5.33769 37.5982C5.43361 37.6898 5.58709 37.8156 5.67449 37.8753C6.02195 38.1098 6.61029 38.357 6.94922 38.4103C7.29028 38.4657 7.84025 38.4231 8.04915 38.3251C8.15147 38.276 8.21755 38.2121 8.19624 38.1801C8.17279 38.1417 8.1131 38.1524 7.98094 38.2206C7.78483 38.3208 7.6484 38.34 7.33505 38.308C6.70408 38.2462 6.06245 37.9968 5.61693 37.6387C5.20126 37.3061 4.92415 36.7775 4.92415 36.3234C4.92415 35.8012 5.20979 35.4025 5.77894 35.1297C6.05392 34.9975 6.32464 34.9357 6.69342 34.9229C7.06859 34.908 7.33292 34.9442 7.74646 35.0657C8.91034 35.4089 9.62658 35.8033 11.7454 37.272C12.9392 38.0991 13.1609 38.244 13.6106 38.5084C14.9941 39.3184 16.3946 39.8108 17.7674 39.9728C18.0786 40.0091 19.4684 40.0091 19.8031 39.9728C21.1631 39.8236 22.2758 39.5166 23.2287 39.0264C25.0747 38.0799 26.1576 36.5409 26.4667 34.4263C26.5562 33.8123 26.375 33.1814 25.9657 32.674C25.6566 32.2903 25.1024 31.9706 24.4928 31.8171C23.9257 31.6764 23.4312 31.6636 22.5231 31.7681C22.4741 31.7723 22.4741 31.8043 22.5295 30.7491L22.5679 30.0244L22.8279 29.1291C23.0923 28.2253 23.2521 27.7073 23.4461 27.1296C23.5101 26.9399 23.542 26.8162 23.5271 26.8184C23.5122 26.8184 23.444 26.8333 23.3715 26.8503ZM26.1874 35.3557C26.0553 35.7031 25.7462 36.3234 25.5479 36.6325C24.9255 37.6088 24.1432 38.3464 23.1605 38.8878C22.5743 39.2097 21.8239 39.4783 21.1141 39.6168C20.9627 39.6467 20.8135 39.6765 20.7837 39.6829C20.6963 39.7021 20.7602 39.6616 20.9222 39.5955C21.8452 39.2203 22.6169 38.5553 22.8897 37.8966C22.958 37.7346 23.0219 37.4319 23.0219 37.2805C23.0219 37.2081 23.0283 37.1974 23.0816 37.1846C24.0771 36.9608 24.7549 36.6602 25.3667 36.1742C25.7142 35.8971 26.0467 35.5134 26.2023 35.2064C26.2364 35.1382 26.2684 35.0871 26.2748 35.0913C26.2791 35.0977 26.2407 35.215 26.1874 35.3557Z" fill="black"/>
<path d="M1.94191 27.3513C1.93552 27.4707 1.86518 27.6178 1.76925 27.7137L1.66693 27.816L1.73941 27.8714C1.82254 27.9354 1.88649 28.0484 1.92699 28.2061L1.9547 28.317L1.96963 28.2381C1.99521 28.1017 2.06129 27.9738 2.15082 27.8864L2.23395 27.8054L2.16148 27.7478C2.07834 27.6817 2.03358 27.6029 1.98028 27.4344C1.9611 27.3705 1.94191 27.3321 1.94191 27.3513Z" fill="black"/>
<path d="M15.4801 28.513C15.4161 28.528 15.3629 28.5429 15.3607 28.5471C15.3565 28.5493 15.2371 28.9756 15.0943 29.4915C14.0583 33.2133 14.0071 33.3839 13.8984 33.6056C13.7257 33.9573 13.4806 34.2387 13.3186 34.2706C13.2781 34.2792 13.2589 34.2962 13.2589 34.3218C13.2589 34.3602 13.2909 34.3623 14.0796 34.3623C14.8854 34.3623 14.9003 34.3623 14.9003 34.3197C14.9003 34.2898 14.8854 34.277 14.8513 34.277C14.7703 34.277 14.5891 34.1747 14.5059 34.0809C14.3375 33.8976 14.2437 33.5885 14.2714 33.3178C14.28 33.2411 14.329 33.0449 14.3802 32.8808C14.6338 32.0814 15.6187 28.545 15.5995 28.5024C15.5952 28.4939 15.5419 28.5003 15.4801 28.513Z" fill="black"/>
<path d="M0.460438 28.6963C0.396488 28.9841 0.225956 29.257 0.0596864 29.3444C0.0277115 29.3614 0 29.3827 0 29.3913C0 29.3998 0.0426331 29.4339 0.0937929 29.4659C0.260062 29.5703 0.394357 29.8027 0.46257 30.099L0.498808 30.2589L0.522256 30.1416C0.592601 29.8027 0.726895 29.5682 0.923007 29.4446L1.00614 29.3934L0.912349 29.3337C0.735422 29.2207 0.620312 29.0331 0.543573 28.7283L0.496676 28.5365L0.460438 28.6963Z" fill="black"/>
<path d="M1.94194 29.1078C1.92915 29.1845 1.83109 32.9383 1.83323 33.2496L1.83536 33.3498L1.99949 33.4691C2.71999 33.9956 3.23372 34.2152 3.94783 34.3069C4.51059 34.3793 4.98381 34.3687 5.43573 34.277C6.60174 34.0383 7.39685 33.2666 7.67397 32.0963C7.79547 31.5869 7.82105 30.9197 7.74005 30.4507C7.71447 30.31 7.68676 30.1885 7.6761 30.1778C7.66118 30.1629 6.6529 30.3548 6.45679 30.4102C6.42481 30.4187 6.42695 30.4336 6.46318 30.5637C6.53992 30.8365 6.56977 31.0987 6.56977 31.4526C6.56764 32.3948 6.28199 33.2091 5.77679 33.7185C5.33127 34.1704 4.82181 34.3303 4.34005 34.1683C3.44689 33.8699 2.78821 32.9959 2.35548 31.5293C2.17642 30.9218 2.02294 30.0521 1.96326 29.3103C1.95473 29.1866 1.94407 29.095 1.94194 29.1078Z" fill="black"/>
<path d="M9.20877 29.8283C8.8741 29.8986 8.59911 29.9583 8.59485 29.9604C8.59272 29.9626 8.54156 30.8046 8.484 31.832C8.41792 32.9959 8.36676 33.759 8.34545 33.8528C8.29215 34.1108 8.18557 34.2493 8.0193 34.2749C7.96814 34.2834 7.9383 34.3005 7.93404 34.3261C7.92764 34.3602 8.06194 34.3623 10.3727 34.3623H12.8177L12.8049 34.3026C12.7985 34.2706 12.6429 33.2666 12.4574 32.0729C12.2698 30.877 12.1163 29.9221 12.1142 29.9519C12.1121 29.9796 12.0993 30.3058 12.0865 30.6745C12.0268 32.5269 11.7795 33.6674 11.3404 34.1321L11.221 34.2557H10.4302C9.99322 34.2557 9.63297 34.2493 9.6287 34.2387C9.62444 34.2301 9.6756 33.2645 9.74381 32.0921C9.88024 29.7323 9.88237 29.6918 9.844 29.6961C9.82908 29.6982 9.54344 29.7579 9.20877 29.8283Z" fill="black"/>
</svg>
